<?xml version="1.0" standalone="no"?>
<!DOCTYPE svg PUBLIC "-//W3C//DTD SVG 20010904//EN"
 "http://www.w3.org/TR/2001/REC-SVG-20010904/DTD/svg10.dtd">
<svg version="1.0" xmlns="http://www.w3.org/2000/svg"
 width="1024.000000pt" height="1024.000000pt" viewBox="0 0 1024.000000 1024.000000"
 preserveAspectRatio="xMidYMid meet">
<metadata>
Created by potrace 1.15, written by Peter Selinger 2001-2017
</metadata>
<g transform="translate(0.000000,1024.000000) scale(0.100000,-0.100000)"
fill="#000000" stroke="none">
<path d="M4920 9640 c-930 -42 -1800 -357 -2542 -922 -126 -96 -334 -276 -408
-352 -24 -25 -51 -46 -59 -46 -8 0 -11 -3 -8 -6 4 -4 -34 -50 -84 -102 -485
-507 -869 -1188 -1060 -1881 -216 -784 -216 -1638 0 -2422 76 -276 162 -500
296 -774 266 -544 628 -1016 1085 -1418 510 -447 1123 -780 1769 -958 785
-216 1637 -216 2422 0 537 148 1064 409 1512 748 167 127 276 221 441 383 383
375 668 768 901 1245 282 577 430 1166 454 1804 28 756 -118 1470 -438 2136
l-68 142 29 17 c50 30 210 188 268 267 64 86 137 223 170 319 81 240 81 521
-1 760 -124 364 -459 675 -836 775 -226 61 -480 61 -706 0 -189 -50 -407 -177
-541 -314 l-50 -51 -45 26 c-25 15 -52 34 -58 42 -7 9 -13 13 -13 9 0 -4 -18
2 -40 13 -22 11 -40 25 -40 31 0 6 -4 7 -10 4 -5 -3 -10 -1 -10 6 0 7 -3 10
-6 6 -4 -3 -50 16 -103 42 -678 341 -1454 505 -2221 471z m720 -94 c394 -50
774 -146 1130 -288 148 -58 501 -228 495 -238 -2 -4 2 -7 9 -7 19 0 126 -63
126 -74 0 -6 5 -7 11 -4 5 4 -8 -17 -30 -46 -21 -28 -62 -95 -89 -148 -94
-181 -132 -337 -132 -541 0 -314 110 -584 330 -814 195 -203 428 -324 724
-376 77 -13 315 -13 392 0 151 27 261 63 392 127 59 29 75 34 82 23 5 -8 6
-18 4 -22 -3 -4 0 -8 6 -8 6 0 8 -4 5 -10 -3 -5 -1 -10 5 -10 6 0 8 -4 5 -10
-3 -5 -1 -10 5 -10 6 0 8 -4 5 -10 -3 -5 -2 -10 3 -10 5 0 32 -51 60 -112 190
-421 310 -853 369 -1328 14 -116 18 -218 18 -510 0 -391 -9 -503 -61 -790
-144 -796 -505 -1545 -1034 -2145 -402 -456 -871 -813 -1412 -1074 -460 -222
-906 -353 -1428 -418 -209 -26 -811 -26 -1020 0 -921 115 -1752 484 -2425
1077 -837 738 -1352 1717 -1492 2840 -26 209 -26 811 0 1020 92 734 334 1386
740 1988 155 231 291 397 496 606 374 383 757 662 1225 892 513 253 1029 394
1636 448 115 10 731 -3 850 -18z"/>
<path d="M4615 7820 c-292 -20 -625 -102 -895 -220 -313 -137 -536 -286 -761
-510 -292 -290 -450 -573 -541 -965 -21 -90 -23 -124 -23 -355 0 -284 9 -349
82 -570 60 -181 191 -425 302 -560 17 -20 21 -39 21 -102 0 -247 -115 -635
-324 -1086 -36 -78 -66 -144 -66 -146 0 -2 17 0 38 5 20 5 91 20 157 35 550
118 1143 315 1371 455 31 19 31 19 22 71 -6 29 -11 133 -11 230 -1 98 -4 178
-8 178 -3 0 -9 -4 -15 -9 -17 -16 -201 -111 -316 -162 -284 -127 -518 -205
-518 -171 0 4 9 36 21 72 74 237 134 482 159 650 l10 65 -49 50 c-296 307
-431 615 -431 985 1 365 134 690 396 969 316 335 725 539 1254 623 191 30 507
30 700 0 498 -79 888 -264 1196 -567 241 -237 381 -493 437 -794 l12 -64 70
-24 c102 -34 250 -93 325 -129 l65 -31 3 29 c5 45 -27 303 -49 398 -93 400
-323 762 -669 1052 -233 196 -544 365 -858 467 -348 114 -717 157 -1107 131z"/>
<path d="M5990 5514 c-14 -2 -65 -9 -115 -15 -281 -34 -600 -162 -835 -336
-41 -31 -122 -104 -180 -162 -251 -253 -380 -555 -380 -890 0 -287 104 -566
301 -807 83 -102 204 -211 324 -293 282 -191 589 -286 990 -307 119 -7 431 23
535 51 74 20 103 19 143 -5 130 -77 506 -205 807 -275 63 -15 141 -33 173 -41
32 -8 62 -14 67 -14 5 0 -10 39 -32 88 -133 287 -228 599 -228 749 0 47 5 59
53 126 236 328 299 759 167 1132 -68 190 -166 342 -325 501 -248 248 -595 420
-970 481 -86 14 -443 26 -495 17z m-366 -1208 c150 -88 169 -276 40 -398 -42
-39 -95 -58 -161 -58 -169 0 -280 153 -233 321 14 51 76 118 134 146 67 32
154 28 220 -11z m678 10 c48 -23 100 -75 122 -121 14 -28 17 -56 14 -115 -3
-68 -7 -84 -33 -122 -17 -23 -51 -56 -75 -73 -38 -25 -57 -30 -117 -33 -80 -5
-130 13 -186 66 -79 74 -96 193 -42 291 29 53 98 110 150 124 37 10 130 1 167
-17z m661 10 c88 -32 145 -96 167 -186 24 -101 -36 -220 -134 -266 -129 -60
-271 -8 -332 121 -89 188 103 401 299 331z"/>
</g>
</svg>
