<?xml version="1.0" standalone="no"?>
<!DOCTYPE svg PUBLIC "-//W3C//DTD SVG 20010904//EN"
 "http://www.w3.org/TR/2001/REC-SVG-20010904/DTD/svg10.dtd">
<svg version="1.0" xmlns="http://www.w3.org/2000/svg"
 width="1024.000000pt" height="1024.000000pt" viewBox="0 0 1024.000000 1024.000000"
 preserveAspectRatio="xMidYMid meet">

<g transform="translate(0.000000,1024.000000) scale(0.100000,-0.100000)"
fill="#000000" stroke="none">
<path d="M0 5120 l0 -5120 5120 0 5120 0 0 2180 0 2180 -25 -16 c-14 -9 -25
-20 -25 -25 0 -21 -516 -291 -765 -399 -477 -208 -999 -381 -1540 -511 -121
-29 -222 -54 -225 -56 -2 -2 1 -13 8 -23 16 -27 16 -242 0 -258 -9 -9 -9 -15
0 -24 8 -8 12 -50 12 -125 0 -95 -3 -118 -20 -145 -11 -18 -20 -43 -20 -54 0
-12 -7 -27 -15 -34 -8 -7 -15 -19 -15 -26 0 -41 -182 -224 -222 -224 -8 0 -23
-7 -34 -15 -10 -8 -31 -15 -45 -15 -15 0 -32 -7 -39 -15 -11 -13 -90 -15 -600
-15 -545 0 -589 -1 -609 -17 -17 -14 -23 -35 -30 -103 -5 -53 -17 -105 -33
-140 -13 -30 -32 -81 -42 -112 -10 -31 -24 -62 -32 -69 -8 -6 -14 -16 -14 -21
0 -30 -186 -248 -212 -248 -4 0 -16 -8 -26 -17 -21 -20 -59 -43 -112 -68 -19
-9 -52 -25 -73 -36 -22 -10 -53 -19 -70 -19 -18 -1 -50 -9 -72 -20 -53 -25
-258 -29 -292 -5 -12 8 -43 18 -70 22 -26 3 -75 19 -107 35 -33 15 -65 28 -72
28 -15 0 -164 110 -164 122 0 4 -6 8 -13 8 -26 0 -187 229 -187 266 0 6 -6 17
-14 23 -8 6 -17 33 -21 59 -4 26 -13 54 -20 62 -8 10 -14 50 -17 112 -2 77 -7
101 -21 115 -16 17 -59 18 -620 23 -543 5 -606 7 -647 23 -64 25 -88 38 -150
79 -84 55 -113 90 -166 198 -9 19 -25 51 -35 71 -17 33 -19 63 -19 316 0 201
3 282 12 291 6 6 9 14 6 17 -3 4 -118 35 -254 70 -509 130 -953 281 -1399 475
-282 123 -693 341 -925 491 -91 58 -109 74 -114 100 -7 37 -8 89 -2 89 3 0 49
-28 103 -62 679 -428 1545 -780 2466 -1003 161 -39 183 -42 191 -28 11 20 58
74 168 192 49 51 88 97 88 102 0 6 23 39 50 75 28 36 50 69 50 75 0 5 15 31
34 57 18 26 48 77 66 112 17 36 41 82 51 102 10 20 19 44 19 53 0 9 6 26 14
38 23 36 86 233 86 269 0 19 7 44 16 56 16 23 30 125 40 287 3 44 9 89 15 100
5 11 11 203 13 440 4 423 9 508 41 600 9 28 21 64 27 80 25 79 55 154 65 167
6 7 14 25 18 40 4 15 13 32 21 39 8 6 14 18 14 26 0 8 16 38 35 67 19 29 35
56 35 61 0 4 22 35 48 69 27 33 53 69 59 79 13 25 234 247 245 247 5 0 30 17
55 38 78 64 210 141 343 201 14 6 32 15 40 20 19 11 92 37 192 67 40 12 60 25
67 41 7 15 11 127 11 310 0 180 4 300 11 322 35 114 109 201 213 250 55 27 75
31 145 31 45 0 89 -4 99 -9 9 -6 29 -12 43 -15 32 -7 152 -116 185 -168 13
-21 24 -48 24 -60 1 -13 7 -34 15 -48 11 -20 14 -83 15 -316 0 -216 3 -294 13
-307 13 -17 89 -46 122 -47 11 0 31 -9 45 -20 14 -11 33 -20 43 -20 9 0 34 -9
54 -20 21 -11 43 -20 49 -20 6 0 17 -7 24 -15 7 -8 22 -15 34 -15 12 0 27 -5
33 -11 12 -12 46 -32 78 -48 12 -5 27 -16 34 -25 7 -9 17 -16 22 -16 26 0 194
-138 294 -242 96 -99 152 -167 187 -229 15 -25 34 -51 42 -59 9 -7 16 -20 16
-30 0 -10 7 -23 14 -30 8 -6 23 -33 32 -58 10 -26 26 -58 36 -71 10 -13 18
-34 18 -46 0 -12 7 -28 15 -35 8 -7 15 -20 15 -29 0 -9 9 -33 20 -54 11 -20
20 -49 20 -64 0 -16 7 -46 15 -68 8 -22 14 -63 15 -90 0 -28 6 -57 13 -63 9
-10 13 -132 18 -510 5 -437 7 -502 22 -536 9 -21 17 -64 17 -95 1 -31 7 -74
15 -96 8 -22 15 -53 15 -68 0 -15 6 -40 14 -55 7 -15 16 -43 20 -63 4 -21 13
-42 21 -49 8 -7 15 -24 15 -39 0 -14 7 -37 15 -51 14 -25 20 -37 35 -75 12
-33 29 -69 39 -85 5 -8 14 -26 20 -40 15 -32 72 -133 80 -140 9 -7 30 -42 40
-67 6 -11 15 -24 21 -28 6 -4 22 -24 35 -46 14 -21 53 -68 88 -105 34 -36 64
-71 66 -78 2 -6 25 -33 50 -61 26 -27 58 -66 73 -85 l27 -34 188 43 c828 190
1676 509 2298 864 l130 74 3 2896 2 2897 -2447 0 c-1345 0 -2444 -2 -2442 -5
3 -2 79 -9 170 -15 151 -9 193 -14 364 -40 108 -16 249 -41 285 -50 19 -5 71
-16 115 -25 44 -10 91 -21 105 -25 14 -4 43 -12 65 -18 200 -54 497 -154 643
-218 17 -8 47 -20 65 -28 272 -119 513 -248 741 -398 49 -32 86 -58 82 -58 -4
0 -1 -6 6 -14 7 -7 19 -11 25 -9 7 3 13 1 13 -4 0 -22 -14 -21 -46 4 -19 14
-34 22 -34 19 0 -4 -10 -2 -21 5 -12 6 -19 7 -16 2 3 -4 -1 -13 -8 -20 -11
-10 -15 -10 -19 0 -3 9 -7 9 -14 -1 -7 -11 -11 -10 -16 5 -7 17 -8 17 -21 0
-11 -16 -13 -16 -19 -2 -3 9 -2 13 4 10 6 -3 7 1 4 10 -5 13 -8 13 -18 3 -6
-8 -22 -22 -36 -33 -14 -11 -19 -13 -12 -5 14 17 16 34 2 25 -5 -3 -10 -1 -10
5 0 6 -4 8 -10 5 -5 -3 -10 0 -10 7 0 8 -5 6 -11 -5 -5 -9 -8 -21 -5 -25 2 -4
-4 -8 -14 -8 -15 0 -17 3 -7 15 9 12 9 13 0 7 -19 -11 -39 4 -22 16 11 8 11 9
-1 5 -8 -2 -14 -11 -12 -19 1 -10 -8 -18 -25 -21 -22 -4 -25 -3 -13 6 20 16
24 38 5 31 -8 -4 -15 -10 -15 -16 0 -5 -5 -6 -10 -3 -6 4 -8 11 -5 16 3 5 -2
6 -11 2 -12 -4 -15 -3 -10 6 6 9 3 9 -13 -1 -29 -18 -26 -28 5 -22 18 3 25 1
22 -8 -3 -7 -16 -13 -29 -13 -13 0 -30 -4 -38 -9 -10 -7 -12 -6 -6 4 6 10 1
12 -21 7 -16 -3 -23 -4 -17 -1 19 8 16 22 -4 20 -10 0 -27 -11 -39 -24 l-21
-24 2 34 c2 30 0 34 -24 35 -16 1 -20 -1 -11 -5 19 -9 23 -52 4 -45 -7 3 -10
12 -6 21 5 15 3 15 -10 4 -13 -10 -18 -10 -24 -1 -4 7 -3 9 3 6 5 -3 10 0 10
8 0 13 -2 13 -16 0 -19 -16 -62 -16 -73 0 -5 6 -8 4 -8 -6 0 -22 11 -31 26
-18 9 7 12 6 10 -5 -3 -24 -12 -28 -26 -11 -7 8 -22 16 -34 16 -17 1 -17 2 -3
6 18 5 23 28 7 38 -6 4 -7 -1 -3 -12 6 -16 5 -16 -10 -4 -15 12 -17 12 -12 -1
5 -12 0 -15 -22 -12 -15 1 -33 -2 -40 -8 -7 -6 -13 -7 -13 -2 0 5 -8 0 -16
-11 -11 -14 -15 -15 -14 -5 4 30 -1 38 -24 36 -13 0 -22 -5 -19 -9 3 -5 10 -6
17 -4 15 6 19 -30 4 -39 -8 -5 -9 -1 -5 10 6 15 1 17 -41 14 -26 -2 -50 -7
-54 -13 -5 -6 -8 -6 -8 1 0 12 -29 12 -48 0 -7 -4 -16 -5 -19 -2 -4 3 -2 6 3
6 5 0 10 10 11 23 2 22 2 22 -18 -3 -13 -15 -19 -18 -15 -8 3 12 1 15 -10 11
-7 -3 -14 0 -14 7 0 10 -3 10 -15 0 -12 -10 -15 -10 -15 1 -1 8 -7 3 -16 -11
l-15 -25 7 25 6 25 -24 -25 c-18 -19 -22 -28 -14 -39 10 -12 8 -12 -11 0 -13
8 -23 17 -23 22 0 4 4 6 8 3 4 -2 14 -1 21 3 9 6 10 11 2 15 -6 4 -11 2 -11
-5 0 -7 -8 -5 -20 6 -11 10 -21 15 -21 12 -1 -4 -2 -13 -3 -19 -1 -12 -6 -14
-49 -17 -11 -1 -15 -5 -11 -13 4 -7 -6 -2 -22 9 -40 29 -66 32 -70 10 -1 -11
-6 -22 -10 -25 -4 -4 -4 1 -1 11 5 13 3 17 -5 14 -7 -2 -12 -9 -11 -15 2 -7
-4 -9 -14 -5 -11 4 -13 8 -5 11 7 2 12 11 12 20 0 13 -2 14 -9 3 -6 -9 -11
-10 -15 -2 -4 6 -4 16 -1 21 3 6 3 10 0 10 -3 0 -12 -14 -19 -31 -12 -29 -14
-30 -29 -14 -10 9 -18 14 -18 11 -1 -3 -2 -10 -3 -15 0 -5 -4 -13 -8 -17 -4
-3 -6 3 -3 15 2 11 -1 21 -6 21 -6 0 -8 4 -5 8 2 4 -4 9 -15 9 -10 1 -19 -2
-19 -8 0 -5 5 -8 11 -6 6 1 13 -6 14 -16 3 -15 1 -16 -11 -6 -8 6 -17 9 -21 6
-3 -3 -18 0 -32 8 -18 9 -32 10 -42 4 -11 -7 -9 -9 8 -9 12 0 24 -4 27 -9 3
-4 -8 -7 -24 -5 -16 2 -35 -3 -43 -11 -19 -18 -26 -10 -22 23 2 15 2 21 -1 14
-3 -6 -10 -10 -15 -7 -5 4 -6 -2 -2 -12 6 -15 4 -16 -9 -5 -17 14 -13 56 5 45
6 -3 7 -1 3 6 -9 14 -26 5 -26 -15 0 -8 -6 -14 -12 -14 -9 0 -8 -4 2 -11 12
-8 11 -9 -5 -7 -11 2 -25 -3 -32 -12 -10 -13 -11 -13 -9 3 1 10 9 22 16 27 8
5 11 12 7 17 -5 4 -12 1 -16 -6 -6 -9 -11 -10 -15 -2 -4 6 -13 11 -19 11 -7 0
-4 -5 6 -11 14 -8 15 -14 6 -30 -6 -12 -13 -18 -16 -15 -3 3 -13 1 -22 -4 -11
-5 -23 -5 -32 2 -11 8 -11 9 4 4 9 -3 17 -1 17 4 0 17 -38 11 -50 -7 -11 -17
-11 -17 -6 0 4 12 2 17 -6 14 -7 -2 -12 -9 -11 -15 2 -7 -4 -9 -13 -5 -15 5
-15 7 0 15 9 5 21 19 27 31 11 21 11 21 -15 -2 -26 -25 -37 -17 -13 9 6 8 3 7
-9 -3 -24 -20 -38 -22 -28 -4 4 6 3 9 -1 4 -5 -4 -18 1 -29 10 -17 15 -19 15
-8 1 9 -12 10 -18 2 -23 -6 -4 -18 1 -26 11 -12 17 -13 17 -8 2 5 -15 2 -17
-24 -12 -19 4 -32 1 -37 -7 -6 -8 -4 -10 5 -4 8 5 11 4 6 -3 -4 -6 -13 -9 -21
-5 -10 3 -14 0 -12 -8 2 -8 2 -11 0 -6 -3 4 -11 7 -19 7 -8 0 -14 5 -14 11 0
5 5 7 12 3 7 -5 8 -3 3 6 -6 10 -4 12 8 7 9 -3 19 -3 21 2 3 4 -8 7 -24 7 -16
0 -27 -3 -25 -6 2 -4 -2 -16 -10 -26 -15 -18 -15 -18 -29 0 -9 11 -20 15 -28
10 -10 -6 -11 -4 -3 7 6 8 0 4 -11 -9 -21 -24 -22 -24 -33 -5 -5 11 -7 24 -3
28 4 5 1 5 -6 1 -7 -4 -10 -11 -7 -16 3 -4 -9 -10 -25 -12 -20 -3 -30 0 -30 8
0 7 -4 15 -9 18 -4 3 -7 -6 -5 -19 1 -14 -3 -28 -8 -32 -7 -3 -8 -1 -4 5 9 15
-6 16 -21 1 -6 -6 -17 -9 -23 -7 -9 3 -8 9 4 21 9 9 23 14 31 10 11 -4 13 -1
9 11 -5 13 -9 14 -20 5 -9 -7 -14 -8 -14 -1 0 14 -28 23 -35 11 -4 -5 -1 -8 6
-7 6 2 13 -2 16 -9 3 -9 -4 -10 -26 -3 -17 5 -31 6 -31 3 0 -3 -8 1 -17 8 -13
11 -15 11 -9 1 5 -9 1 -15 -14 -19 -13 -3 -19 -11 -16 -19 3 -8 3 -14 0 -14
-2 0 -9 11 -14 25 -5 14 -15 25 -21 25 -8 0 -8 -4 1 -15 11 -13 10 -14 -4 -9
-9 3 -22 2 -29 -4 -6 -5 -20 -9 -30 -9 -16 0 -16 2 -1 18 12 13 12 19 3 25 -8
4 -10 3 -5 -4 9 -15 1 -15 -24 -2 -13 7 -19 6 -23 -4 -4 -10 1 -13 16 -10 13
3 16 1 7 -2 -8 -4 -21 -12 -29 -18 -11 -8 -13 -8 -8 0 4 7 -1 15 -10 18 -10 4
-14 4 -11 0 9 -8 -34 -44 -44 -37 -5 2 -8 13 -8 24 0 11 4 18 10 14 5 -3 6
-13 3 -23 -6 -15 -5 -15 11 -3 16 14 16 16 2 26 -9 7 -14 14 -11 16 2 3 -4 5
-14 5 -15 0 -18 -6 -15 -26 3 -14 1 -20 -3 -14 -13 17 -40 23 -52 11 -8 -8
-11 -7 -11 4 0 11 -2 11 -9 1 -4 -7 -17 -15 -27 -16 -10 -2 -18 -10 -18 -19 1
-9 -4 -13 -12 -10 -7 2 -10 12 -7 20 5 12 3 14 -7 8 -9 -5 -11 -4 -6 3 4 7 2
12 -3 12 -6 0 -11 -5 -11 -11 0 -8 -5 -8 -15 1 -12 10 -18 10 -32 -1 -10 -8
-14 -9 -10 -2 4 6 2 15 -4 19 -8 5 -8 8 0 13 6 4 -5 7 -24 7 -38 0 -48 -13
-13 -18 12 -2 23 -10 25 -18 4 -12 3 -13 -5 -1 -8 11 -11 9 -17 -8 -3 -11 -14
-21 -23 -21 -14 0 -14 2 -3 9 7 5 10 14 6 21 -6 9 -10 9 -17 -1 -6 -10 -7 -6
-2 11 6 22 5 23 -9 11 -9 -7 -15 -17 -12 -21 7 -11 -53 -4 -68 7 -15 12 -48
13 -41 1 3 -4 -2 -16 -12 -25 -16 -16 -16 -15 -13 18 4 30 2 34 -18 33 -33 -1
-56 -23 -42 -41 7 -7 9 -16 5 -20 -3 -3 -6 -1 -6 6 0 7 -4 10 -9 7 -5 -3 -7 8
-6 24 2 25 0 28 -11 19 -8 -6 -14 -8 -14 -3 0 5 -7 -2 -16 -14 -12 -17 -22
-21 -45 -17 -22 4 -28 2 -23 -6 4 -7 3 -9 -4 -5 -5 3 -12 3 -15 -1 -2 -5 -2
-3 -1 4 2 6 -4 14 -12 17 -9 3 -12 1 -9 -4 4 -6 1 -9 -7 -8 -7 2 -12 -3 -10
-10 2 -10 -2 -10 -18 -2 -11 6 -20 7 -20 3 0 -4 -9 3 -21 16 -17 18 -23 20
-37 9 -27 -20 -28 -22 -7 -14 16 6 17 5 8 -5 -10 -10 -16 -9 -28 1 -8 7 -25
14 -38 15 -12 2 -26 4 -32 5 -5 1 -16 2 -24 1 -11 -1 -11 -4 -1 -16 11 -13 10
-14 -4 -9 -9 3 -16 12 -16 19 0 8 -4 16 -9 19 -5 4 -7 -3 -4 -14 5 -18 -1 -22
-23 -19 -14 2 -23 -26 -11 -33 8 -5 9 -8 1 -8 -6 0 -18 8 -25 17 -10 11 -10
14 -1 9 6 -4 12 -3 12 3 0 5 -5 11 -11 13 -8 3 -6 10 5 21 10 9 14 17 9 17
-14 0 -42 -38 -35 -46 4 -5 0 -3 -9 4 -12 9 -19 9 -29 -1 -8 -6 -5 2 5 18 l18
30 -21 -18 c-20 -18 -21 -18 -31 0 -9 16 -11 16 -12 -7 -1 -14 -1 -28 -1 -31
1 -3 -5 -6 -13 -6 -8 0 -11 5 -7 11 13 21 10 35 -6 29 -9 -4 -13 -2 -9 4 3 5
0 10 -8 10 -8 0 -14 -3 -13 -6 2 -17 -5 -19 -32 -11 -19 5 -30 5 -30 -1 0 -6
-6 -7 -12 -2 -7 4 -4 -6 6 -22 13 -20 14 -26 4 -18 -8 7 -18 9 -22 5 -4 -4 -6
0 -4 8 2 10 -4 14 -17 13 -11 -1 -14 0 -7 3 6 3 12 13 12 22 0 13 -2 14 -9 4
-4 -8 -19 -12 -32 -10 -21 3 -24 -1 -21 -25 4 -29 -18 -35 -29 -8 -3 8 -13 15
-22 17 -14 2 -15 -1 -6 -19 9 -18 9 -20 -1 -10 -7 6 -19 9 -26 6 -8 -3 -14 1
-14 8 0 12 -2 12 -9 0 -7 -11 -10 -10 -15 5 -3 11 -17 24 -31 31 -14 6 -23 7
-20 3 3 -5 0 -10 -7 -12 -7 -3 -5 -7 6 -11 11 -5 15 -3 10 5 -4 7 -3 8 4 4 7
-4 17 -17 22 -29 9 -19 9 -20 -2 -7 -15 18 -53 27 -43 10 3 -6 1 -9 -6 -8 -7
2 -13 -3 -14 -9 0 -7 -3 -13 -7 -13 -5 0 -13 0 -19 0 -6 0 -1 9 12 20 13 10
22 20 19 20 -35 8 -38 7 -32 -8 5 -15 4 -15 -11 -3 -13 11 -17 11 -17 1 0 -8
-3 -10 -6 -7 -4 4 -1 13 6 22 7 9 10 18 6 22 -3 3 -6 1 -6 -5 0 -7 -5 -12 -11
-12 -5 0 -7 6 -3 13 6 9 5 9 -8 0 -8 -7 -18 -10 -21 -6 -4 3 -7 1 -7 -5 0 -15
17 -24 23 -12 3 6 4 5 3 -2 -2 -7 -7 -13 -12 -13 -5 0 -16 -4 -24 -10 -13 -8
-13 -7 0 10 14 17 13 18 -2 12 -10 -4 -24 1 -34 11 -18 18 -104 25 -104 9 0
-4 -5 -5 -12 -1 -6 4 -8 3 -4 -4 3 -6 15 -9 24 -7 11 2 24 -6 32 -18 12 -20
12 -21 -2 -9 -9 7 -26 15 -39 17 -12 3 -26 10 -31 17 -7 12 -12 4 -9 -15 1 -5
-3 -6 -8 -3 -5 4 -11 3 -14 -1 -2 -5 -2 -2 0 5 1 8 -3 12 -9 9 -7 -2 -26 7
-43 22 -16 14 -23 18 -15 7 8 -10 15 -24 16 -32 3 -19 -15 -29 -29 -15 -6 6
-18 11 -26 11 -14 0 -14 -1 -1 -10 8 -5 10 -10 4 -10 -6 0 -18 8 -25 18 -7 9
-10 14 -5 10 4 -4 19 -3 32 2 19 7 24 6 24 -5 0 -8 5 -15 10 -15 7 0 7 6 0 20
-8 15 -15 18 -34 10 -13 -5 -27 -6 -30 -2 -10 9 -37 12 -31 3 2 -5 -2 -16 -9
-26 -10 -13 -17 -15 -30 -8 -17 9 -17 11 -2 16 10 4 15 3 11 -3 -3 -6 -1 -10
4 -10 6 0 11 7 11 16 0 17 -40 17 -52 0 -3 -5 -14 -11 -23 -12 -12 -2 -15 3
-11 14 4 10 -2 7 -12 -7 -15 -18 -21 -21 -27 -11 -6 9 -4 11 6 5 11 -7 12 -6
2 7 -16 19 -75 18 -81 -1 -3 -10 -1 -11 9 -5 24 15 55 11 55 -8 0 -12 -4 -14
-12 -7 -13 10 -39 -13 -27 -25 4 -3 -3 -5 -15 -3 -29 4 -51 25 -36 35 6 4 15
18 19 31 5 16 4 21 -4 17 -6 -4 -11 -14 -11 -21 0 -17 -47 -17 -69 -1 -11 8
-13 8 -7 -1 4 -8 2 -13 -8 -13 -8 0 -17 -6 -19 -12 -4 -10 -6 -9 -6 1 -1 11
-4 11 -18 0 -14 -12 -16 -12 -9 0 6 9 5 12 -5 9 -8 -3 -13 -11 -11 -18 2 -10
0 -11 -10 -3 -7 6 -21 9 -30 8 -11 -2 -15 2 -11 13 3 13 1 13 -11 -2 -9 -11
-16 -14 -16 -7 0 7 -5 9 -10 6 -6 -4 -8 -10 -5 -15 3 -5 1 -11 -4 -15 -6 -3
-8 4 -6 15 3 14 0 20 -8 17 -7 -2 -12 -9 -12 -14 0 -6 -4 -15 -8 -20 -5 -4 -7
-1 -5 7 2 9 -3 14 -12 12 -25 -6 -1 12 33 25 l32 11 -37 -1 c-20 -1 -34 -5
-31 -9 2 -5 -3 -8 -12 -8 -10 0 -13 -5 -9 -12 4 -7 3 -8 -4 -4 -7 4 -12 14
-12 22 0 17 -12 18 -28 2 -17 -17 -92 -17 -92 0 0 7 5 10 12 6 7 -4 8 -3 4 5
-9 14 -26 5 -26 -15 0 -8 -5 -14 -11 -14 -5 0 -7 5 -3 12 4 7 3 8 -4 4 -7 -4
-12 -2 -12 5 0 7 -3 10 -6 7 -3 -4 -1 -15 5 -25 8 -15 7 -20 -4 -20 -8 0 -12
4 -9 9 3 4 0 8 -6 8 -6 0 -9 4 -6 9 3 5 -2 15 -11 22 -12 10 -14 10 -9 2 4 -8
2 -13 -7 -13 -8 0 -18 -7 -21 -16 -3 -9 -13 -14 -20 -11 -8 3 -17 1 -19 -6 -3
-9 -7 -9 -17 0 -11 10 -16 9 -27 -5 -10 -13 -13 -14 -11 -2 4 21 20 31 34 19
8 -7 14 -6 19 1 3 5 -2 10 -12 10 -14 1 -13 4 7 15 14 8 20 14 15 15 -6 0 -19
-6 -30 -13 -35 -24 -55 -28 -48 -10 4 11 2 14 -5 9 -7 -4 -12 -15 -13 -24 0
-11 -2 -12 -6 -4 -2 6 -10 9 -16 6 -7 -3 -1 3 13 14 13 11 28 18 32 16 4 -3 8
0 8 6 0 7 7 9 16 6 8 -3 13 -2 10 3 -7 11 148 114 308 206 205 117 460 241
627 305 30 11 64 25 77 30 39 17 66 27 117 45 28 9 59 20 70 25 56 24 374 115
510 145 39 9 88 20 110 25 47 11 180 34 285 49 41 7 102 16 135 21 33 5 136
14 229 20 94 6 172 13 175 15 2 3 -1101 5 -2452 5 l-2457 0 0 -5120z m7750
4225 c0 -12 -19 -12 -23 0 -4 9 -1 12 9 8 7 -3 14 -7 14 -8z m-3060 -15 c0 -4
-7 -11 -16 -14 -8 -3 -12 -2 -9 4 3 6 1 10 -5 10 -6 0 -9 4 -5 10 6 10 35 2
35 -10z m1257 0 c-1 -20 -9 -25 -20 -13 -4 3 -2 12 4 20 15 18 18 17 16 -7z
m907 3 c-3 9 -1 17 4 17 16 0 22 -14 12 -30 -7 -11 -11 -11 -24 -1 -9 8 -16
18 -16 24 0 6 7 2 15 -9 13 -16 14 -16 9 -1z m360 1 c3 -8 2 -13 -3 -9 -5 3
-11 -1 -14 -7 -3 -7 -4 -3 -4 10 1 25 12 29 21 6z m716 -4 c-8 -5 -17 -7 -19
-4 -3 3 1 9 9 14 8 5 17 7 19 4 3 -3 -1 -9 -9 -14z m-3316 -5 c-4 -8 -11 -12
-16 -9 -6 4 -5 10 3 15 19 12 19 11 13 -6z m848 1 c7 4 8 2 4 -4 -4 -6 -13 -9
-21 -5 -8 3 -15 -1 -15 -8 0 -7 -3 -9 -6 -6 -4 4 -1 14 7 23 8 10 15 12 17 5
2 -6 9 -8 14 -5z m418 10 c0 -3 -4 -8 -10 -11 -5 -3 -10 -1 -10 4 0 6 5 11 10
11 6 0 10 -2 10 -4z m27 -11 c0 -8 -7 -15 -15 -15 -12 0 -12 3 -2 15 7 8 13
15 15 15 1 0 2 -7 2 -15z m1410 -7 c-3 -8 -6 -5 -6 6 -1 11 2 17 5 13 3 -3 4
-12 1 -19z m-3862 2 c3 -5 2 -10 -4 -10 -5 0 -11 -6 -14 -12 -2 -7 -3 -5 -2 4
2 10 -2 15 -11 11 -8 -3 -14 0 -14 6 0 14 37 15 45 1z m559 -11 c-3 -5 -10 -7
-15 -4 -5 4 -9 1 -9 -6 0 -7 -3 -9 -6 -6 -9 9 16 38 27 31 5 -3 7 -10 3 -15z
m254 -4 c-3 -3 -9 2 -12 12 -6 14 -5 15 5 6 7 -7 10 -15 7 -18z m120 0 c-3 -3
-9 2 -12 12 -6 14 -5 15 5 6 7 -7 10 -15 7 -18z m368 16 c-4 -5 -1 -12 4 -14
6 -3 5 -4 -2 -3 -15 3 -23 26 -8 26 6 0 9 -4 6 -9z m746 2 c-6 -2 -9 -10 -5
-16 3 -7 3 -9 -2 -5 -4 4 -15 2 -23 -5 -13 -11 -14 -9 -1 11 8 12 21 22 29 21
10 0 11 -2 2 -6z m478 -3 c0 -5 -2 -10 -4 -10 -3 0 -8 5 -11 10 -3 6 -1 10 4
10 6 0 11 -4 11 -10z m410 -1 c0 -15 -18 -19 -23 -6 -3 8 1 14 9 14 8 0 14 -4
14 -8z m227 5 c-3 -3 -12 -4 -19 -1 -8 3 -5 6 6 6 11 1 17 -2 13 -5z m116 -15
c-8 -8 -13 -7 -18 2 -5 8 -4 10 3 5 7 -4 12 -2 12 5 0 7 3 9 7 6 4 -4 2 -12
-4 -18z m331 13 c3 -5 -1 -9 -9 -9 -8 0 -12 4 -9 9 3 4 7 8 9 8 2 0 6 -4 9 -8z
m-4494 -35 c0 -5 -4 -5 -10 -2 -5 3 -10 14 -10 23 0 15 2 15 10 2 5 -8 10 -19
10 -23z m710 18 c7 -9 8 -15 2 -15 -5 0 -12 7 -16 15 -3 8 -4 15 -2 15 2 0 9
-7 16 -15z m690 6 c0 -5 -9 -7 -20 -4 -11 3 -20 7 -20 9 0 2 9 4 20 4 11 0 20
-4 20 -9z m344 1 c2 -4 -4 -8 -14 -8 -10 0 -16 4 -14 8 3 4 9 8 14 8 5 0 11
-4 14 -8z m-1949 -23 c-4 -5 -12 -9 -18 -8 -9 0 -8 2 1 6 6 2 9 10 6 15 -4 7
-2 8 5 4 6 -4 9 -12 6 -17z m485 17 c0 -2 -8 -10 -17 -17 -16 -13 -17 -12 -4
4 13 16 21 21 21 13z m1737 -11 c0 -8 -4 -12 -9 -9 -5 3 -6 10 -3 15 9 13 12
11 12 -6z m788 5 c-3 -5 -12 -10 -18 -10 -7 0 -6 4 3 10 19 12 23 12 15 0z
m-2865 -16 c0 -2 -11 -3 -24 -2 -14 1 -23 5 -20 9 4 7 44 0 44 -7z m664 8 c3
-5 -1 -9 -9 -9 -8 0 -15 4 -15 9 0 4 4 8 9 8 6 0 12 -4 15 -8z m1646 2 c0 -8
-19 -13 -24 -6 -3 5 1 9 9 9 8 0 15 -2 15 -3z m-1450 -14 c0 -5 -2 -10 -4 -10
-3 0 -8 5 -11 10 -3 6 -1 10 4 10 6 0 11 -4 11 -10z m514 1 c3 -5 -1 -11 -9
-14 -9 -4 -12 -1 -8 9 6 16 10 17 17 5z m-333 -26 c5 4 7 11 4 16 -4 5 -1 9 4
9 14 0 14 -17 1 -25 -5 -3 -7 -13 -4 -23 4 -11 -2 -8 -15 8 -11 14 -21 30 -20
35 0 6 4 2 10 -8 6 -9 15 -15 20 -12z m793 -6 c-8 -14 -21 -11 -21 5 0 8 6 12
14 9 7 -3 10 -9 7 -14z m-556 -66 c-6 -7 -12 -13 -13 -13 -2 0 -5 6 -8 13 -3
7 3 13 14 13 13 0 15 -3 7 -13z m678 -31 c-17 -16 -18 -16 -5 5 7 12 15 20 18
17 3 -2 -3 -12 -13 -22z m1122 3 c-3 -3 -9 2 -12 12 -6 14 -5 15 5 6 7 -7 10
-15 7 -18z m-1973 -696 c75 -50 95 -89 95 -182 l0 -78 -54 -55 c-36 -35 -63
-54 -78 -54 -13 0 -28 -4 -33 -8 -6 -5 -37 -19 -70 -31 -52 -19 -79 -31 -165
-71 -8 -4 -24 -11 -35 -17 -11 -6 -49 -25 -85 -42 -70 -35 -89 -47 -299 -187
-160 -108 -448 -404 -579 -596 -24 -35 -58 -85 -77 -113 -19 -27 -41 -65 -50
-83 -8 -18 -24 -46 -35 -62 -11 -15 -20 -34 -20 -42 0 -7 -9 -24 -20 -38 -11
-14 -20 -35 -20 -47 0 -12 -5 -25 -10 -28 -6 -4 -20 -28 -31 -53 -11 -26 -25
-55 -30 -64 -5 -10 -9 -27 -9 -37 0 -11 -4 -23 -10 -26 -5 -3 -10 -15 -10 -26
0 -10 -9 -36 -20 -56 -11 -21 -20 -54 -20 -74 0 -20 -7 -42 -15 -49 -8 -6 -17
-38 -21 -71 -4 -33 -11 -62 -15 -65 -5 -3 -9 -33 -9 -68 0 -40 -6 -75 -17 -97
-16 -30 -18 -72 -21 -349 -2 -269 0 -323 14 -370 9 -30 20 -89 24 -130 12
-111 29 -192 46 -217 7 -12 14 -34 14 -48 0 -14 9 -43 20 -65 28 -56 27 -147
-2 -186 -53 -71 -81 -94 -116 -94 -18 0 -43 -5 -54 -11 -14 -8 -23 -8 -31 0
-6 6 -25 11 -43 11 -27 0 -41 10 -83 57 -35 39 -51 66 -51 84 0 15 -4 31 -10
34 -5 3 -10 17 -10 30 0 13 -9 44 -20 70 -11 26 -20 63 -20 84 0 20 -7 47 -16
59 -16 24 -32 122 -41 257 -2 44 -10 86 -16 94 -16 19 -16 623 0 643 6 7 14
45 17 83 12 142 23 211 39 247 10 21 17 53 17 72 0 19 5 38 10 41 5 3 10 15
10 26 0 10 4 27 9 37 14 27 31 87 31 107 0 10 7 26 15 35 9 10 19 35 22 56 3
22 11 46 18 54 7 8 16 26 20 40 14 52 131 291 171 350 13 19 24 40 24 46 0 6
9 19 20 29 11 10 20 23 20 29 0 6 13 27 29 46 15 19 31 44 35 55 3 11 26 43
51 70 24 28 47 58 50 68 4 9 11 17 16 17 5 0 13 10 18 22 17 48 412 440 463
460 10 4 18 12 18 17 0 5 8 12 18 15 9 3 31 19 49 36 18 16 36 30 41 30 5 0
17 9 27 20 10 11 21 20 25 20 10 0 128 79 135 91 4 5 12 9 20 9 8 0 33 13 57
29 24 15 59 35 78 43 58 25 84 37 100 47 14 9 131 63 175 81 11 5 38 14 60 20
22 7 56 20 75 31 56 29 120 25 175 -12z m3328 11 c20 -11 44 -20 52 -20 8 0
23 -4 33 -9 9 -5 42 -19 72 -31 68 -28 140 -60 160 -72 8 -4 26 -13 40 -19 14
-6 36 -18 50 -26 14 -8 43 -23 65 -34 22 -11 54 -29 70 -39 17 -11 44 -27 60
-36 17 -9 55 -35 85 -58 30 -22 67 -48 82 -56 15 -8 63 -45 108 -82 44 -38 84
-68 88 -68 18 0 328 -331 413 -440 23 -30 50 -63 61 -73 10 -10 18 -22 18 -28
0 -5 18 -34 40 -64 22 -30 40 -58 40 -63 0 -5 10 -22 23 -38 12 -16 31 -47 43
-69 11 -22 31 -58 44 -80 34 -59 100 -193 100 -202 0 -5 9 -26 20 -48 11 -22
20 -44 20 -51 0 -6 7 -17 15 -24 8 -7 15 -24 15 -39 1 -14 7 -37 15 -51 8 -14
14 -37 15 -51 0 -15 6 -32 14 -38 7 -6 16 -33 20 -59 3 -27 13 -57 21 -68 8
-10 15 -35 15 -54 0 -19 7 -53 15 -75 8 -22 14 -59 15 -81 0 -23 7 -59 16 -80
14 -33 16 -99 17 -484 1 -400 -1 -448 -16 -479 -9 -19 -17 -55 -17 -80 0 -25
-7 -64 -15 -86 -8 -22 -14 -56 -15 -76 0 -20 -6 -42 -14 -48 -8 -6 -17 -33
-21 -59 -4 -26 -13 -58 -20 -72 -7 -14 -18 -43 -25 -65 -17 -55 -76 -115 -113
-115 -15 0 -38 -5 -49 -11 -14 -8 -23 -8 -31 0 -6 6 -29 11 -52 11 -34 0 -47
6 -76 38 -19 20 -41 50 -47 65 -17 39 -15 138 3 180 8 20 15 49 15 64 0 16 6
38 14 49 8 12 18 45 22 75 4 30 12 60 18 68 6 8 14 48 18 90 3 42 12 96 19
121 16 56 24 595 10 625 -16 35 -31 112 -31 165 0 28 -6 63 -14 78 -7 15 -17
53 -20 84 -4 31 -14 62 -22 69 -8 6 -14 23 -14 36 0 29 -24 109 -51 169 -11
23 -19 47 -19 54 0 6 -6 24 -13 38 -8 15 -21 42 -30 60 -9 19 -17 39 -17 46 0
6 -16 35 -35 65 -19 29 -35 58 -35 65 0 7 -11 27 -25 46 -14 19 -25 37 -25 41
0 4 -20 37 -45 73 -25 37 -45 69 -45 71 0 8 -98 134 -142 182 -21 24 -38 46
-38 51 0 13 -252 262 -265 262 -6 0 -22 12 -36 26 -25 27 -185 154 -195 154
-2 0 -28 16 -57 35 -28 19 -55 35 -59 35 -5 0 -31 16 -58 35 -27 19 -52 35
-56 35 -3 0 -52 22 -107 49 -56 26 -113 52 -127 56 -28 8 -86 32 -112 46 -10
5 -28 9 -41 9 -14 0 -37 15 -58 38 -58 61 -69 85 -69 154 0 84 29 141 87 168
23 11 44 24 48 30 11 17 98 11 138 -10z m-2933 -885 c7 -8 19 -15 26 -15 8 0
29 -21 49 -47 31 -43 35 -55 35 -111 0 -54 -4 -70 -30 -107 -34 -49 -79 -85
-107 -85 -10 0 -29 -9 -43 -20 -14 -11 -36 -20 -48 -20 -13 0 -35 -9 -49 -20
-14 -11 -33 -20 -42 -21 -9 0 -29 -9 -46 -19 -16 -11 -43 -26 -60 -33 -16 -8
-36 -21 -44 -30 -7 -10 -18 -17 -23 -17 -24 0 -132 -84 -232 -180 -97 -93
-226 -239 -226 -254 0 -3 -19 -34 -42 -69 -65 -95 -158 -291 -158 -331 0 -13
-6 -29 -14 -35 -8 -7 -17 -35 -21 -64 -4 -29 -13 -61 -20 -72 -7 -11 -15 -52
-18 -90 -9 -99 -17 -147 -28 -171 -14 -28 -6 -201 14 -299 9 -44 17 -99 17
-122 0 -23 6 -57 14 -75 8 -18 18 -49 21 -69 3 -21 12 -42 20 -49 11 -9 15
-33 15 -82 0 -72 -9 -92 -71 -161 -31 -35 -99 -51 -177 -41 -47 6 -57 11 -97
58 -25 28 -45 58 -45 66 0 8 -9 32 -20 53 -11 20 -20 50 -20 66 0 16 -7 45
-15 64 -8 20 -15 59 -15 87 0 31 -7 61 -17 77 -15 23 -17 59 -17 307 1 239 3
287 17 320 10 21 17 62 17 90 1 28 7 62 15 76 8 14 14 40 15 58 0 18 6 43 14
55 8 12 17 38 21 57 4 19 14 44 21 55 8 11 14 27 14 35 0 9 14 43 30 75 17 32
30 64 30 70 0 7 9 24 20 38 11 14 20 30 20 36 0 11 53 98 122 200 69 101 149
201 224 276 74 76 236 215 250 215 4 0 34 20 65 45 32 25 61 45 65 45 4 0 31
16 60 35 29 19 56 35 60 35 12 0 114 52 120 61 3 5 13 9 22 9 9 0 30 7 46 15
15 8 36 15 45 15 10 0 26 7 37 15 27 20 167 21 184 0z m2550 0 c7 -8 21 -15
31 -15 20 0 53 -14 174 -73 106 -51 186 -96 206 -113 8 -8 19 -14 23 -14 8 0
130 -94 171 -132 17 -15 34 -28 40 -28 12 0 205 -191 205 -204 0 -5 25 -37 55
-73 30 -35 66 -80 80 -101 58 -84 95 -145 95 -154 0 -5 9 -22 19 -37 11 -15
27 -47 37 -72 9 -24 23 -51 31 -60 7 -8 13 -22 13 -31 0 -8 9 -27 20 -41 11
-14 20 -37 20 -50 0 -14 5 -29 10 -32 6 -3 10 -16 10 -29 0 -12 4 -26 8 -31
10 -12 29 -77 37 -129 4 -21 12 -48 20 -60 21 -34 28 -152 29 -441 0 -284 -11
-420 -38 -470 -9 -16 -16 -45 -16 -63 0 -18 -9 -52 -20 -74 -11 -23 -20 -50
-20 -60 0 -10 -21 -40 -47 -66 -54 -55 -96 -68 -185 -56 -41 6 -57 15 -99 55
l-49 48 0 77 c0 69 6 103 30 169 17 46 30 119 30 166 0 28 7 72 16 99 20 62
17 341 -4 362 -7 7 -12 38 -12 77 0 35 -4 78 -9 95 -5 17 -15 51 -22 76 -7 25
-16 49 -21 55 -4 5 -8 21 -8 36 0 14 -9 38 -20 52 -11 14 -20 34 -20 44 0 16
-27 74 -96 204 -8 15 -21 32 -29 39 -8 7 -15 20 -15 29 0 9 -21 39 -45 66 -25
28 -45 56 -45 63 0 17 -254 272 -270 272 -7 0 -34 18 -60 40 -26 22 -54 40
-62 40 -8 0 -23 9 -32 19 -19 21 -216 121 -238 121 -7 0 -28 9 -46 20 -18 11
-41 20 -51 20 -24 0 -86 57 -111 103 -26 48 -27 127 -2 165 10 15 23 36 28 47
22 41 83 65 165 65 56 0 80 -4 89 -15z"/>
<path d="M7440 9375 c-7 -9 -11 -17 -9 -20 3 -2 10 5 17 15 14 24 10 26 -8 5z"/>
<path d="M6260 9376 c0 -2 8 -10 18 -17 15 -13 16 -12 3 4 -13 16 -21 21 -21
13z"/>
<path d="M6356 9365 c4 -8 11 -15 16 -15 6 0 5 6 -2 15 -7 8 -14 15 -16 15 -2
0 -1 -7 2 -15z"/>
<path d="M3570 9366 c0 -2 8 -10 18 -17 15 -13 16 -12 3 4 -13 16 -21 21 -21
13z"/>
<path d="M4444 9362 c3 -5 0 -13 -6 -15 -10 -4 -10 -6 0 -6 6 -1 12 -6 12 -12
0 -5 -4 -7 -10 -4 -5 3 -10 1 -10 -5 0 -7 6 -10 13 -8 15 6 18 46 4 55 -6 3
-7 1 -3 -5z"/>
<path d="M5022 9361 c2 -18 -3 -22 -15 -13 -14 12 -46 -2 -34 -15 5 -4 12 -2
16 5 6 10 10 10 19 -1 17 -20 56 -14 60 9 3 15 1 17 -9 7 -17 -17 -34 -17 -20
0 8 10 7 14 -4 14 -7 0 -14 -3 -13 -6z"/>
<path d="M5087 9359 c7 -7 15 -10 18 -7 3 3 -2 9 -12 12 -14 6 -15 5 -6 -5z"/>
<path d="M6626 9357 c3 -10 9 -15 12 -12 3 3 0 11 -7 18 -10 9 -11 8 -5 -6z"/>
<path d="M6680 9360 c-8 -5 -17 -7 -20 -5 -4 2 -7 -2 -7 -10 0 -10 4 -12 12
-5 7 5 15 7 18 3 4 -3 7 0 7 8 0 11 2 11 10 -1 6 -9 10 -10 10 -3 0 17 -14 23
-30 13z"/>
<path d="M6975 9361 c-11 -5 -23 -7 -27 -5 -4 3 -9 1 -12 -4 -2 -4 9 -8 25 -7
16 0 31 6 34 12 2 7 3 13 2 12 -1 0 -11 -4 -22 -8z"/>
<path d="M7512 9361 c-11 -7 -11 -9 2 -14 10 -4 16 -1 16 8 0 17 -1 17 -18 6z"/>
<path d="M2870 9351 c0 -6 4 -13 10 -16 6 -3 7 1 4 9 -7 18 -14 21 -14 7z"/>
<path d="M4346 9343 c-6 -14 -5 -15 5 -6 7 7 10 15 7 18 -3 3 -9 -2 -12 -12z"/>
<path d="M4387 9349 c7 -7 15 -10 18 -7 3 3 -2 9 -12 12 -14 6 -15 5 -6 -5z"/>
<path d="M4522 9343 c2 -9 14 -17 28 -19 14 -1 19 0 12 3 -10 4 -9 9 5 20 11
9 7 9 -11 -2 -26 -16 -28 -16 -23 -1 4 9 2 16 -4 16 -6 0 -9 -7 -7 -17z"/>
<path d="M5322 9339 c-7 -10 -8 -19 -3 -19 13 0 33 28 23 33 -4 3 -13 -3 -20
-14z"/>
<path d="M5607 9349 c7 -7 15 -10 18 -7 3 3 -2 9 -12 12 -14 6 -15 5 -6 -5z"/>
<path d="M6051 9352 c-6 -2 -11 -9 -11 -15 0 -8 3 -8 11 0 12 12 39 6 51 -11
5 -7 8 -5 8 4 0 13 1 13 10 0 8 -13 10 -12 10 3 0 9 -3 17 -7 18 -35 4 -63 4
-72 1z"/>
<path d="M7005 9349 c-3 -4 2 -6 10 -5 21 3 28 13 10 13 -9 0 -18 -4 -20 -8z"/>
<path d="M2335 9340 c3 -5 8 -10 11 -10 2 0 4 5 4 10 0 6 -5 10 -11 10 -5 0
-7 -4 -4 -10z"/>
<path d="M2497 9343 c-10 -9 -9 -23 1 -23 5 0 9 7 9 15 0 17 -1 18 -10 8z"/>
<path d="M2715 9329 c6 -30 15 -37 15 -11 0 11 -4 23 -9 27 -6 3 -8 -4 -6 -16z"/>
<path d="M2799 9337 c6 -8 7 -18 3 -22 -4 -5 -1 -5 6 -1 10 6 10 11 1 22 -6 8
-14 14 -16 14 -3 0 0 -6 6 -13z"/>
<path d="M3487 9336 c-3 -8 -2 -18 3 -21 13 -8 20 9 11 24 -6 10 -10 9 -14 -3z"/>
<path d="M4770 9340 c0 -6 4 -9 9 -6 5 4 12 1 14 -4 3 -6 4 -5 3 2 -3 15 -26
23 -26 8z"/>
<path d="M4817 9343 c-4 -3 -7 -11 -7 -17 0 -6 5 -5 12 2 6 6 9 14 7 17 -3 3
-9 2 -12 -2z"/>
<path d="M5741 9334 c0 -11 3 -14 6 -6 3 7 2 16 -1 19 -3 4 -6 -2 -5 -13z"/>
<path d="M3713 9327 c-3 -5 -2 -11 1 -14 3 -4 6 0 6 7 0 9 5 7 16 -6 13 -15
15 -16 10 -2 -3 12 2 18 17 21 12 3 7 4 -11 4 -19 -1 -36 -5 -39 -10z"/>
<path d="M2317 9323 c-10 -9 -9 -23 1 -23 5 0 9 7 9 15 0 17 -1 18 -10 8z"/>
<path d="M2775 9320 c3 -5 8 -10 11 -10 2 0 4 5 4 10 0 6 -5 10 -11 10 -5 0
-7 -4 -4 -10z"/>
<path d="M4180 9319 c0 -5 5 -7 10 -4 6 3 10 8 10 11 0 2 -4 4 -10 4 -5 0 -10
-5 -10 -11z"/>
<path d="M2945 9300 c-4 -6 -10 -8 -15 -5 -5 3 -11 1 -15 -5 -10 -16 31 -12
45 5 8 9 9 15 2 15 -6 0 -14 -5 -17 -10z"/>
<path d="M5025 6519 c-33 -5 -67 -12 -75 -15 -8 -4 -77 -28 -153 -55 -234 -82
-420 -196 -516 -314 -13 -17 -47 -55 -76 -87 -99 -107 -220 -317 -263 -458 -6
-19 -17 -51 -23 -70 -25 -74 -31 -157 -39 -525 -5 -227 -12 -394 -19 -415 -6
-19 -11 -56 -11 -83 0 -26 -6 -58 -14 -70 -7 -12 -16 -44 -19 -72 -3 -27 -13
-63 -21 -80 -9 -16 -16 -35 -16 -41 0 -6 -9 -33 -21 -60 -105 -250 -171 -369
-304 -549 -121 -165 -127 -176 -114 -214 6 -17 12 -31 14 -31 1 0 92 -13 201
-29 383 -57 709 -88 1164 -112 272 -14 1274 -7 1460 10 63 6 140 13 170 16 98
8 157 15 217 24 32 6 139 22 238 36 132 20 184 31 193 44 24 29 9 104 -32 169
-20 31 -51 86 -67 121 -38 79 -125 235 -154 276 -12 17 -41 71 -65 120 -23 50
-49 102 -56 117 -8 14 -14 35 -14 45 0 10 -4 23 -9 29 -17 18 -47 134 -60 239
-4 33 -14 74 -21 90 -10 23 -15 120 -18 410 -2 210 -8 384 -13 390 -5 5 -9 26
-9 46 0 20 -7 61 -16 90 -8 30 -21 72 -27 94 -6 22 -17 47 -24 56 -7 8 -13 25
-13 36 0 11 -7 26 -15 33 -8 7 -15 18 -15 26 0 17 -46 103 -69 129 -10 11 -28
38 -41 60 -59 100 -307 320 -460 408 -71 40 -213 92 -360 130 -149 40 -307 53
-415 36z"/>
<path d="M4691 2350 c36 -65 132 -154 209 -194 188 -99 440 -102 627 -7 84 42
166 119 188 176 9 26 15 48 13 51 -3 2 -242 7 -533 10 l-528 7 24 -43z"/>
</g>
</svg>
