<svg height="512" viewBox="0 0 128 128" width="512" xmlns="http://www.w3.org/2000/svg"><g><g><path d="m1.75 22.25h124.5v83.494h-124.5z" fill="#32d736"/><path d="m19.878 63.997 44.122-33.22 44.122 33.22-44.122 33.22z" fill="#fedb41"/><circle cx="64" cy="63.997" fill="#4a7aff" r="13.875"/><path d="m54.448 53.951a13.822 13.822 0 0 0 -4.114 7.725c.09 0 .178-.014.268-.014a17.751 17.751 0 0 1 17.587 15.563 13.887 13.887 0 0 0 7.079-5.153 25.806 25.806 0 0 0 -20.82-18.121z" fill="#2864f0"/></g><g><path d="m126.25 20.5h-124.5a1.75 1.75 0 0 0 -1.75 1.75v83.494a1.75 1.75 0 0 0 1.75 1.75h124.5a1.75 1.75 0 0 0 1.75-1.75v-83.494a1.75 1.75 0 0 0 -1.75-1.75zm-1.75 83.494h-121v-79.994h121z"/><path d="m18.825 65.4 44.122 33.22a1.751 1.751 0 0 0 2.106 0l44.122-33.22a1.751 1.751 0 0 0 0-2.8l-11.121-8.374a1.75 1.75 0 1 0 -2.106 2.8l9.265 6.974-41.213 31.027-41.213-31.027 41.213-31.033 7.8 5.874a1.75 1.75 0 1 0 2.1-2.8l-8.854-6.666a1.749 1.749 0 0 0 -2.106 0l-44.115 33.225a1.751 1.751 0 0 0 0 2.8z"/><path d="m80.786 45.606 6.177 4.651a1.75 1.75 0 1 0 2.105-2.8l-6.176-4.647a1.75 1.75 0 1 0 -2.106 2.8z"/><path d="m53.417 52.535a1.8 1.8 0 0 0 -.274.249 15.588 15.588 0 0 0 -4.523 8.547c0 .021-.007.042-.01.063a15.606 15.606 0 0 0 20.105 17.5c.031-.009.061-.022.091-.033a15.679 15.679 0 0 0 7.777-5.637 1.645 1.645 0 0 0 .119-.159 15.6 15.6 0 0 0 -23.285-20.53zm16.09 22.25a19.39 19.39 0 0 0 -4.184-8.126 1.75 1.75 0 1 0 -2.646 2.29 15.912 15.912 0 0 1 3.5 6.966 12.078 12.078 0 0 1 -14.302-11.915c0-.178.019-.35.027-.526a15.779 15.779 0 0 1 4.37.982 1.75 1.75 0 0 0 1.248-3.27 19.3 19.3 0 0 0 -4.96-1.166 12.116 12.116 0 0 1 2.492-4.173 24.064 24.064 0 0 1 18.261 15.9 12.186 12.186 0 0 1 -3.806 3.038zm6.618-10.785a12.059 12.059 0 0 1 -.618 3.8 27.649 27.649 0 0 0 -16.844-14.673 12.1 12.1 0 0 1 17.462 10.873z"/></g></g></svg>