<svg id="svg" version="1.1" xmlns="http://www.w3.org/2000/svg" xmlns:xlink="http://www.w3.org/1999/xlink" width="400" height="400" viewBox="0, 0, 400,400"><g id="svgg"><path id="path0" d="M142.400 1.205 C 142.400 1.422,142.128 1.600,141.795 1.600 C 141.462 1.600,140.877 1.774,140.495 1.986 C 138.989 2.822,136.010 4.000,135.398 4.000 C 135.043 4.000,134.864 4.180,135.000 4.400 C 135.136 4.620,134.891 4.800,134.456 4.800 C 134.021 4.800,133.110 5.070,132.432 5.400 C 131.755 5.730,130.645 6.270,129.968 6.600 C 129.290 6.930,128.480 7.200,128.168 7.200 C 127.855 7.200,127.600 7.366,127.600 7.568 C 127.600 7.771,127.021 8.064,126.313 8.219 C 125.605 8.375,124.750 8.650,124.413 8.831 C 124.076 9.013,123.080 9.453,122.200 9.810 C 119.668 10.837,118.353 11.424,116.063 12.550 C 114.888 13.127,113.715 13.600,113.457 13.600 C 113.199 13.600,112.316 13.960,111.496 14.400 C 110.675 14.840,109.828 15.200,109.613 15.200 C 109.399 15.200,108.183 15.667,106.912 16.238 C 101.433 18.698,99.405 19.710,99.015 20.178 C 98.787 20.452,97.970 20.913,97.200 21.203 C 96.430 21.493,95.440 22.038,95.000 22.415 C 94.560 22.792,93.525 23.414,92.700 23.796 C 91.875 24.178,91.200 24.651,91.200 24.846 C 91.200 25.041,90.975 25.200,90.700 25.200 C 90.425 25.201,89.677 25.651,89.038 26.200 C 88.399 26.750,87.634 27.200,87.338 27.200 C 87.042 27.200,86.800 27.380,86.800 27.600 C 86.800 27.820,86.552 28.000,86.249 28.000 C 85.946 28.000,85.465 28.280,85.181 28.623 C 84.896 28.966,84.064 29.497,83.332 29.803 C 82.599 30.109,82.000 30.540,82.000 30.761 C 82.000 30.982,81.384 31.455,80.631 31.812 C 79.878 32.169,78.419 33.258,77.389 34.231 C 76.359 35.204,75.356 36.000,75.161 36.000 C 74.771 36.000,73.027 37.400,72.046 38.500 C 71.703 38.885,71.187 39.200,70.899 39.200 C 70.611 39.200,70.271 39.470,70.145 39.800 C 70.018 40.130,69.747 40.400,69.542 40.400 C 69.337 40.400,68.420 41.120,67.504 42.000 C 66.588 42.880,65.605 43.600,65.319 43.600 C 65.034 43.600,64.800 43.870,64.800 44.200 C 64.800 44.530,64.637 44.800,64.439 44.800 C 63.743 44.800,58.000 50.111,58.000 50.753 C 58.000 50.999,57.775 51.203,57.500 51.207 C 57.225 51.210,56.221 52.020,55.268 53.007 C 54.315 53.993,53.370 54.800,53.168 54.800 C 52.966 54.800,52.799 54.935,52.798 55.100 C 52.796 55.265,50.729 57.560,48.203 60.200 C 45.677 62.840,43.608 65.132,43.605 65.293 C 43.602 65.454,43.015 66.204,42.300 66.959 C 40.446 68.918,38.228 71.607,38.039 72.123 C 37.828 72.704,37.340 73.297,35.300 75.451 C 34.365 76.439,33.597 77.461,33.594 77.724 C 33.590 77.986,33.052 78.830,32.398 79.600 C 30.637 81.673,30.600 81.721,29.773 83.010 C 29.354 83.665,28.783 84.438,28.505 84.729 C 28.227 85.019,28.000 85.437,28.000 85.657 C 28.000 85.877,27.775 86.308,27.500 86.615 C 26.340 87.908,26.000 88.386,26.000 88.723 C 26.000 88.919,25.460 89.825,24.800 90.737 C 24.140 91.648,23.600 92.575,23.600 92.797 C 23.600 93.018,23.420 93.200,23.200 93.200 C 22.980 93.200,22.800 93.566,22.800 94.013 C 22.800 94.459,22.530 94.929,22.200 95.055 C 21.870 95.182,21.600 95.542,21.600 95.855 C 21.600 96.169,21.330 96.529,21.000 96.655 C 20.670 96.782,20.400 97.125,20.400 97.418 C 20.400 97.945,18.096 102.413,17.625 102.800 C 17.109 103.224,11.198 115.436,11.199 116.076 C 11.200 116.448,11.040 116.852,10.844 116.973 C 10.649 117.094,10.367 117.678,10.218 118.272 C 10.069 118.865,9.597 119.842,9.170 120.442 C 8.743 121.042,8.282 122.088,8.147 122.766 C 8.011 123.445,7.762 124.000,7.593 124.000 C 7.283 124.000,6.614 125.948,6.734 126.500 C 6.770 126.665,6.620 126.800,6.400 126.800 C 6.180 126.800,6.000 127.317,6.000 127.948 C 6.000 128.951,5.415 130.562,2.960 136.314 C 2.652 137.036,2.400 137.983,2.400 138.419 C 2.400 138.855,2.220 139.568,2.000 140.005 C 1.780 140.442,1.420 141.158,1.200 141.595 C 0.939 142.113,0.800 162.189,0.800 199.400 C 0.800 256.738,0.816 257.458,2.080 258.412 C 2.235 258.528,2.456 259.595,2.573 260.783 C 2.689 261.971,2.954 263.048,3.160 263.176 C 3.367 263.303,3.661 263.903,3.813 264.508 C 3.964 265.113,4.249 265.706,4.444 265.827 C 4.640 265.948,4.800 266.337,4.800 266.692 C 4.800 267.047,5.318 268.431,5.950 269.768 C 9.427 277.119,11.137 281.130,10.895 281.371 C 10.770 281.497,10.877 281.600,11.133 281.600 C 11.390 281.600,11.600 281.958,11.600 282.395 C 11.600 283.500,12.753 284.737,13.581 284.521 C 14.366 284.316,15.727 287.309,15.568 288.891 C 15.449 290.080,15.989 292.000,16.443 292.000 C 16.640 292.000,16.800 292.291,16.800 292.647 C 16.800 293.103,17.043 293.230,17.624 293.078 C 18.513 292.845,19.459 294.370,18.719 294.842 C 18.031 295.281,19.711 298.187,20.737 298.332 C 21.498 298.440,21.627 298.639,21.433 299.410 C 21.084 300.802,21.957 302.452,22.970 302.313 C 23.664 302.219,23.778 302.384,23.669 303.321 C 23.517 304.616,24.183 305.600,25.212 305.600 C 25.715 305.600,25.867 305.823,25.727 306.359 C 25.467 307.353,26.258 308.800,27.061 308.800 C 27.481 308.800,27.628 309.050,27.499 309.544 C 27.375 310.017,27.650 310.548,28.252 311.000 C 28.773 311.392,29.200 312.043,29.200 312.448 C 29.200 312.900,29.586 313.282,30.200 313.436 C 30.933 313.620,31.200 313.954,31.200 314.686 C 31.200 315.250,31.896 316.560,32.800 317.695 C 33.680 318.800,34.400 319.838,34.400 320.001 C 34.400 320.164,35.029 320.725,35.797 321.248 C 36.566 321.772,37.202 322.470,37.211 322.800 C 37.231 323.566,38.392 324.959,39.300 325.307 C 39.685 325.454,40.000 325.780,40.000 326.030 C 40.000 326.882,44.033 331.433,45.900 332.687 C 46.395 333.020,46.800 333.541,46.800 333.846 C 46.800 334.151,46.977 334.400,47.192 334.400 C 47.408 334.400,47.696 334.844,47.832 335.387 C 47.969 335.929,48.197 336.358,48.340 336.339 C 49.371 336.204,49.948 336.538,50.163 337.394 C 50.313 337.994,50.792 338.483,51.371 338.629 C 51.915 338.765,52.429 339.259,52.557 339.770 C 52.696 340.324,53.402 340.950,54.391 341.396 C 55.514 341.903,56.005 342.375,56.016 342.961 C 56.030 343.724,59.034 346.397,59.883 346.402 C 60.057 346.403,60.846 346.988,61.635 347.702 C 62.425 348.416,63.910 349.754,64.935 350.677 C 65.961 351.599,66.800 352.544,66.800 352.777 C 66.800 353.009,66.993 353.200,67.229 353.200 C 67.464 353.200,67.927 353.470,68.257 353.800 C 68.587 354.130,69.165 354.400,69.540 354.400 C 69.916 354.400,70.488 354.777,70.812 355.238 C 71.135 355.700,71.580 356.332,71.800 356.643 C 72.020 356.955,72.637 357.293,73.171 357.395 C 74.173 357.587,74.783 358.229,74.794 359.100 C 74.797 359.387,75.308 359.600,75.990 359.600 C 76.910 359.600,77.322 359.875,77.807 360.813 C 78.152 361.480,78.592 361.929,78.785 361.809 C 78.978 361.690,79.407 361.864,79.739 362.196 C 80.071 362.528,80.496 362.800,80.683 362.800 C 80.869 362.800,81.337 363.168,81.722 363.617 C 82.107 364.066,82.578 364.337,82.769 364.219 C 82.960 364.101,83.219 364.274,83.346 364.602 C 83.472 364.931,83.921 365.200,84.345 365.200 C 84.768 365.200,85.218 365.470,85.345 365.800 C 85.471 366.130,86.010 366.400,86.541 366.400 C 87.139 366.400,87.766 366.794,88.184 367.431 C 88.555 367.999,89.096 368.372,89.386 368.261 C 89.675 368.150,90.284 368.406,90.739 368.829 C 91.194 369.253,91.863 369.600,92.226 369.600 C 92.588 369.600,93.240 370.052,93.674 370.604 C 94.109 371.156,94.641 371.498,94.857 371.365 C 95.314 371.083,96.870 372.364,96.600 372.800 C 96.500 372.961,96.946 373.031,97.591 372.956 C 98.705 372.827,100.000 373.608,100.000 374.410 C 100.000 374.605,100.675 374.873,101.500 375.007 C 103.738 375.371,104.701 375.858,104.992 376.776 C 105.199 377.427,105.589 377.600,106.851 377.600 C 107.839 377.600,108.351 377.756,108.194 378.010 C 108.055 378.235,108.089 378.382,108.270 378.335 C 109.887 377.918,114.322 379.577,115.618 381.083 C 116.776 382.428,118.468 383.252,119.176 382.815 C 120.195 382.185,126.124 384.552,129.762 387.041 C 130.284 387.398,130.749 387.441,131.239 387.179 C 132.035 386.753,133.970 387.416,134.528 388.306 C 134.725 388.621,135.476 388.793,136.411 388.737 C 137.445 388.676,138.231 388.885,138.756 389.360 C 139.321 389.872,139.881 390.002,140.722 389.817 C 141.587 389.627,141.962 389.723,142.137 390.179 C 142.296 390.594,142.895 390.800,143.938 390.800 C 144.806 390.800,145.713 391.055,145.977 391.372 C 146.238 391.687,146.817 391.874,147.264 391.788 C 147.710 391.702,148.510 391.916,149.040 392.263 C 149.782 392.749,150.133 392.788,150.563 392.431 C 150.991 392.076,151.162 392.086,151.292 392.475 C 151.396 392.788,152.294 393.014,153.630 393.064 C 156.212 393.160,162.106 394.361,162.425 394.855 C 162.548 395.047,163.088 395.198,163.625 395.192 C 167.592 395.143,169.600 395.300,169.600 395.660 C 169.600 395.907,170.237 396.001,171.175 395.893 C 172.707 395.716,176.076 396.343,176.644 396.910 C 176.799 397.066,177.155 397.003,177.435 396.771 C 178.092 396.225,185.814 396.523,188.875 397.212 C 190.899 397.668,191.266 397.649,192.202 397.036 C 193.021 396.499,193.379 396.450,193.820 396.816 C 194.684 397.534,206.156 397.463,207.064 396.734 C 207.355 396.500,207.624 396.515,207.783 396.772 C 207.954 397.050,208.274 397.035,208.766 396.729 C 209.200 396.457,209.798 396.406,210.247 396.602 C 211.313 397.068,211.738 397.095,212.235 396.729 C 212.475 396.553,214.815 396.309,217.435 396.187 C 222.125 395.968,224.016 395.754,225.200 395.310 C 225.530 395.186,226.295 395.125,226.900 395.173 C 227.720 395.238,228.000 395.079,228.000 394.550 C 228.000 393.998,228.107 393.947,228.480 394.320 C 229.031 394.871,230.400 394.969,230.400 394.457 C 230.400 394.269,230.895 394.099,231.500 394.080 C 232.105 394.060,233.258 394.028,234.062 394.009 C 234.867 393.989,235.740 393.713,236.004 393.395 C 236.356 392.971,236.683 392.924,237.233 393.218 C 237.808 393.525,238.166 393.434,238.776 392.824 C 239.219 392.381,239.676 392.200,239.809 392.415 C 240.206 393.057,241.264 392.848,242.017 391.980 C 242.457 391.473,242.827 391.320,242.988 391.580 C 243.408 392.260,244.755 392.062,245.482 391.212 C 245.943 390.674,246.450 390.498,247.079 390.655 C 248.503 391.013,249.877 390.502,250.174 389.504 L 250.444 388.600 250.861 389.451 C 251.408 390.567,253.702 389.972,254.352 388.545 C 254.846 387.462,255.300 387.357,255.976 388.171 C 256.554 388.867,258.534 388.307,259.306 387.228 C 260.145 386.057,261.305 385.592,261.783 386.235 C 262.342 386.985,264.916 386.213,266.132 384.930 C 266.609 384.426,267.225 384.011,267.500 384.007 C 267.775 384.003,268.000 383.856,268.000 383.680 C 268.000 383.120,270.841 382.281,271.273 382.713 C 271.723 383.163,273.200 382.887,273.200 382.353 C 273.200 382.159,273.501 382.000,273.868 382.000 C 274.501 382.000,278.967 380.162,281.262 378.957 C 281.846 378.651,282.611 378.400,282.962 378.400 C 283.313 378.400,283.600 378.220,283.600 378.000 C 283.600 377.780,283.823 377.600,284.096 377.600 C 285.192 377.600,287.968 376.164,288.140 375.509 C 288.240 375.124,288.835 374.624,289.461 374.397 C 290.088 374.169,290.985 373.787,291.456 373.547 C 292.021 373.260,292.548 373.243,293.003 373.498 C 293.999 374.055,296.905 372.449,297.206 371.174 C 297.392 370.390,297.706 370.189,298.818 370.144 C 300.932 370.059,302.321 369.365,302.470 368.322 C 302.562 367.671,302.835 367.427,303.400 367.491 C 305.160 367.691,306.336 367.159,306.747 365.979 C 307.035 365.153,307.341 364.879,307.785 365.050 C 308.864 365.464,310.890 364.389,310.664 363.522 C 310.516 362.958,310.635 362.820,311.133 362.975 C 312.073 363.267,313.821 362.280,313.694 361.528 C 313.620 361.088,313.907 360.900,314.655 360.900 C 315.247 360.900,316.006 360.541,316.361 360.093 C 316.712 359.649,317.405 359.164,317.900 359.016 C 318.396 358.867,318.990 358.393,319.220 357.962 C 319.451 357.530,319.795 357.273,319.984 357.390 C 320.526 357.725,321.600 357.172,321.600 356.557 C 321.600 356.251,321.836 356.000,322.125 356.000 C 322.413 356.000,323.036 355.640,323.508 355.200 C 323.980 354.760,324.548 354.400,324.769 354.400 C 324.991 354.400,325.353 354.061,325.575 353.646 C 325.797 353.231,326.428 352.779,326.978 352.641 C 327.527 352.503,328.168 352.033,328.403 351.595 C 328.637 351.158,329.092 350.800,329.414 350.800 C 329.736 350.800,330.000 350.530,330.000 350.200 C 330.000 349.870,330.276 349.600,330.613 349.600 C 330.949 349.600,331.322 349.348,331.440 349.039 C 331.559 348.731,332.003 348.388,332.428 348.277 C 332.852 348.166,333.200 347.773,333.200 347.404 C 333.200 347.035,333.418 346.806,333.684 346.895 C 333.950 346.983,335.075 346.209,336.184 345.175 C 340.737 340.927,341.824 340.010,342.310 340.005 C 342.591 340.002,342.925 339.476,343.053 338.835 C 343.181 338.195,343.582 337.562,343.943 337.429 C 345.411 336.889,346.580 335.995,347.088 335.025 C 347.384 334.461,347.813 334.000,348.041 334.000 C 348.700 334.000,349.537 332.990,349.824 331.848 C 349.982 331.216,350.365 330.800,350.787 330.800 C 351.173 330.800,351.828 330.315,352.244 329.721 C 352.660 329.128,353.495 328.124,354.100 327.490 C 354.705 326.857,355.200 326.163,355.200 325.948 C 355.200 325.734,355.704 325.383,356.321 325.168 C 356.937 324.953,357.740 324.287,358.106 323.689 C 358.472 323.090,359.768 321.553,360.986 320.272 C 362.638 318.535,363.200 317.647,363.200 316.772 C 363.200 316.128,363.343 315.600,363.518 315.600 C 364.113 315.600,367.200 312.465,367.200 311.860 C 367.200 311.529,367.650 310.904,368.200 310.471 C 368.750 310.039,369.200 309.400,369.200 309.052 C 369.200 308.703,369.650 308.124,370.200 307.763 C 370.750 307.403,371.200 306.856,371.200 306.549 C 371.200 305.418,373.571 302.400,374.458 302.400 C 374.646 302.400,374.800 302.040,374.800 301.600 C 374.800 301.160,374.977 300.800,375.192 300.800 C 375.408 300.800,375.706 300.305,375.854 299.700 C 376.002 299.095,376.308 298.479,376.533 298.332 C 376.759 298.185,376.988 297.761,377.043 297.390 C 377.097 297.020,377.515 296.455,377.971 296.135 C 378.427 295.816,378.800 295.304,378.800 294.997 C 378.800 294.691,379.093 294.276,379.452 294.075 C 379.811 293.874,380.148 293.280,380.201 292.755 C 380.348 291.304,380.346 291.307,381.181 291.089 C 381.762 290.937,381.916 290.630,381.782 289.889 C 381.646 289.142,381.801 288.841,382.401 288.684 C 382.976 288.533,383.200 288.138,383.200 287.271 C 383.200 286.435,383.518 285.835,384.240 285.309 C 385.041 284.726,385.280 284.206,385.280 283.049 C 385.280 281.866,385.477 281.457,386.206 281.125 C 386.937 280.791,387.221 280.196,387.557 278.288 C 387.896 276.362,388.233 275.663,389.218 274.836 C 390.123 274.078,390.514 273.347,390.679 272.108 C 390.802 271.178,391.023 270.490,391.169 270.581 C 391.314 270.671,391.458 270.424,391.488 270.033 C 391.565 269.011,394.903 260.762,396.762 257.000 C 397.632 255.240,398.176 253.740,397.972 253.667 C 397.386 253.457,397.533 252.544,398.400 251.000 C 399.177 249.616,399.200 248.834,399.200 223.580 L 399.200 197.585 398.167 195.493 C 397.599 194.342,396.949 193.056,396.723 192.635 C 396.497 192.215,396.221 190.775,396.110 189.435 C 395.895 186.845,395.288 185.947,393.981 186.289 C 393.145 186.508,392.944 186.016,393.600 185.360 C 394.102 184.858,393.220 182.808,392.500 182.803 C 392.225 182.801,392.000 182.434,392.000 181.987 C 392.000 181.540,391.651 181.045,391.224 180.887 C 390.797 180.729,390.437 180.465,390.424 180.300 C 390.396 179.952,389.896 179.372,387.146 176.500 C 386.039 175.345,384.978 174.400,384.787 174.400 C 384.596 174.400,384.296 174.166,384.120 173.880 C 383.693 173.185,381.175 171.443,380.443 171.336 C 380.122 171.289,379.702 170.969,379.510 170.625 C 379.306 170.261,378.624 170.000,377.875 170.000 C 376.931 170.000,376.485 169.764,376.195 169.109 C 375.969 168.599,375.201 168.040,374.400 167.805 C 373.630 167.578,372.550 167.139,372.000 166.829 C 371.450 166.518,370.955 166.295,370.900 166.332 C 370.507 166.598,370.000 166.298,370.000 165.800 C 370.000 165.470,369.724 165.200,369.387 165.200 C 369.051 165.200,368.671 165.470,368.545 165.800 C 368.198 166.705,367.400 166.522,366.800 165.400 C 366.252 164.376,363.810 164.111,362.500 164.933 C 362.186 165.130,362.000 165.033,362.000 164.670 C 362.000 164.008,360.514 163.492,360.177 164.038 C 359.772 164.693,357.266 164.447,356.855 163.712 C 356.431 162.955,354.234 162.908,353.355 163.637 C 352.833 164.071,351.127 163.956,349.847 163.400 C 349.393 163.203,348.791 163.263,348.331 163.550 C 347.911 163.813,347.395 163.920,347.184 163.790 C 346.973 163.660,346.800 163.720,346.800 163.924 C 346.800 164.431,342.111 164.504,341.801 164.001 C 341.403 163.357,340.470 163.539,340.326 164.288 C 340.164 165.128,337.753 165.375,337.449 164.583 C 337.337 164.292,336.906 164.152,336.470 164.266 C 336.041 164.378,335.569 164.274,335.422 164.035 C 335.002 163.355,333.832 163.524,333.237 164.349 C 332.930 164.775,332.390 165.018,331.987 164.912 C 331.515 164.789,331.186 165.015,331.005 165.584 C 330.806 166.211,330.599 166.331,330.237 166.031 C 329.892 165.745,329.589 165.769,329.244 166.110 C 328.850 166.497,328.641 166.457,328.242 165.917 C 327.770 165.279,327.693 165.278,327.068 165.903 C 326.645 166.327,326.400 166.394,326.400 166.086 C 326.400 165.819,325.939 165.600,325.376 165.600 C 324.664 165.600,324.444 165.752,324.653 166.100 C 324.837 166.406,324.675 166.374,324.238 166.019 C 323.604 165.504,323.477 165.520,323.123 166.153 C 322.843 166.652,322.441 166.797,321.786 166.632 C 321.271 166.503,320.752 166.554,320.634 166.745 C 320.516 166.936,319.965 167.006,319.410 166.900 C 318.730 166.770,318.398 166.885,318.394 167.253 C 318.389 167.679,318.303 167.668,318.006 167.200 C 317.694 166.709,317.480 166.690,316.831 167.092 C 316.332 167.401,315.947 167.438,315.795 167.192 C 315.662 166.976,315.283 166.800,314.953 166.800 C 314.623 166.800,314.463 166.979,314.598 167.197 C 314.754 167.449,314.111 167.525,312.841 167.404 C 311.720 167.297,310.730 167.389,310.592 167.613 C 310.456 167.833,310.221 167.936,310.069 167.843 C 309.917 167.749,309.032 167.811,308.102 167.981 C 306.967 168.189,306.092 168.125,305.442 167.788 C 304.807 167.459,304.339 167.421,304.080 167.680 C 303.439 168.321,299.507 168.322,298.501 167.682 C 297.682 167.160,297.532 167.193,296.814 168.055 C 296.381 168.575,296.020 168.820,296.011 168.600 C 296.003 168.380,295.253 168.157,294.346 168.105 C 293.438 168.053,292.494 167.756,292.248 167.445 C 291.720 166.779,290.255 166.849,288.656 167.618 C 287.657 168.099,287.454 168.088,287.047 167.533 C 286.512 166.800,283.486 166.619,282.309 167.249 C 281.550 167.655,279.200 166.947,279.200 166.313 C 279.200 165.307,276.907 164.864,275.652 165.627 C 274.380 166.400,274.366 166.400,273.508 165.600 C 272.929 165.061,272.512 164.928,272.242 165.198 C 271.443 165.997,270.387 165.634,270.156 164.480 C 269.947 163.435,267.757 162.000,266.371 162.000 C 266.137 162.000,265.357 161.550,264.636 161.000 C 263.914 160.450,263.124 160.000,262.879 160.000 C 262.024 160.000,256.400 154.531,256.400 153.701 C 256.400 153.425,256.220 153.200,256.000 153.200 C 255.780 153.200,255.600 152.930,255.600 152.600 C 255.600 152.270,255.419 152.000,255.197 152.000 C 254.713 152.000,253.370 148.824,253.534 148.068 C 253.598 147.775,253.375 147.116,253.039 146.604 C 251.704 144.566,251.547 132.574,252.845 131.772 C 253.040 131.651,253.200 131.124,253.200 130.600 C 253.200 130.076,253.379 129.536,253.599 129.401 C 253.818 129.265,254.375 128.278,254.836 127.206 C 255.297 126.134,255.927 125.160,256.237 125.041 C 256.547 124.922,256.800 124.563,256.800 124.243 C 256.800 123.923,257.295 123.149,257.900 122.522 C 258.505 121.895,259.862 120.441,260.916 119.291 C 261.970 118.141,262.986 117.200,263.173 117.200 C 263.361 117.200,263.618 116.930,263.745 116.600 C 263.871 116.270,264.190 116.000,264.454 116.000 C 264.717 116.000,265.218 115.743,265.566 115.428 C 265.915 115.113,266.703 114.393,267.318 113.828 C 267.933 113.263,268.580 112.800,268.756 112.800 C 268.932 112.800,269.402 112.440,269.800 112.000 C 270.198 111.560,270.832 111.200,271.207 111.200 C 271.583 111.200,272.320 110.774,272.845 110.254 C 273.370 109.734,274.173 109.192,274.629 109.049 C 275.086 108.907,275.806 108.468,276.229 108.074 C 277.103 107.261,279.498 106.000,280.167 106.000 C 280.817 106.000,283.550 104.478,284.517 103.577 C 284.976 103.150,285.508 102.800,285.701 102.800 C 285.894 102.800,287.059 102.339,288.291 101.775 C 290.378 100.821,292.853 99.845,294.500 99.327 C 294.885 99.206,295.200 98.858,295.200 98.553 C 295.200 98.249,295.390 98.000,295.621 98.000 C 295.853 98.000,297.317 97.145,298.874 96.100 C 300.431 95.055,301.979 94.020,302.314 93.800 C 303.465 93.044,308.800 88.096,308.800 87.785 C 308.800 87.659,309.339 86.981,309.998 86.278 C 310.657 85.575,311.197 84.815,311.198 84.589 C 311.199 84.363,311.560 83.870,312.000 83.493 C 312.440 83.116,312.800 82.536,312.800 82.204 C 312.800 81.872,312.984 81.600,313.210 81.600 C 313.435 81.600,313.791 81.150,314.000 80.600 C 314.209 80.050,314.565 79.600,314.790 79.600 C 315.016 79.600,315.200 79.402,315.200 79.160 C 315.200 78.919,315.446 78.154,315.746 77.460 C 316.046 76.767,316.607 75.390,316.994 74.400 C 317.380 73.410,317.844 72.240,318.025 71.800 C 318.402 70.886,319.002 67.648,318.934 66.900 C 318.909 66.625,319.010 66.400,319.157 66.400 C 319.924 66.400,319.943 51.895,319.178 50.974 C 318.907 50.647,318.784 50.283,318.903 50.163 C 319.023 50.044,318.938 49.284,318.714 48.474 C 318.491 47.665,318.258 46.642,318.197 46.201 C 318.061 45.219,317.165 42.758,316.062 40.336 C 314.114 36.059,312.000 31.033,312.000 30.677 C 312.000 30.465,311.550 29.875,311.000 29.365 C 310.450 28.855,310.000 28.160,310.000 27.819 C 310.000 27.479,309.640 26.840,309.200 26.400 C 308.760 25.960,308.400 25.451,308.400 25.270 C 308.400 25.088,307.950 24.517,307.400 24.000 C 306.850 23.483,306.400 22.858,306.400 22.612 C 306.400 22.365,305.868 21.721,305.217 21.181 C 304.566 20.642,304.026 19.975,304.017 19.700 C 304.008 19.425,303.730 19.200,303.400 19.200 C 303.070 19.200,302.790 18.975,302.777 18.700 C 302.764 18.425,301.574 17.210,300.131 16.000 C 298.689 14.790,296.944 13.308,296.254 12.706 C 295.564 12.105,294.784 11.610,294.520 11.606 C 294.256 11.603,293.896 11.375,293.720 11.100 C 293.377 10.564,292.178 9.739,291.200 9.366 C 290.870 9.240,290.122 8.881,289.538 8.569 C 288.954 8.256,288.110 8.000,287.662 8.000 C 287.214 8.000,286.745 7.834,286.619 7.631 C 286.494 7.428,285.853 7.143,285.195 6.999 C 284.538 6.855,284.000 6.592,284.000 6.415 C 284.000 6.238,283.595 6.000,283.100 5.886 C 281.708 5.565,276.734 3.643,276.241 3.236 C 275.998 3.035,275.080 2.749,274.200 2.600 C 273.320 2.451,271.835 1.984,270.899 1.562 C 268.956 0.686,142.400 0.334,142.400 1.205 M184.107 39.466 C 184.521 39.722,185.104 39.868,189.297 40.768 C 192.126 41.375,200.392 45.727,202.641 47.795 C 202.883 48.018,203.950 48.920,205.012 49.800 C 208.868 52.997,214.400 59.851,214.400 61.432 C 214.400 61.684,214.905 62.525,215.522 63.301 C 216.138 64.077,216.867 65.497,217.140 66.456 C 217.414 67.415,217.913 69.010,218.250 70.000 C 219.648 74.111,220.751 87.261,219.824 88.762 C 219.724 88.923,219.522 89.943,219.376 91.028 C 219.230 92.113,218.876 93.630,218.590 94.400 C 218.304 95.170,217.975 96.357,217.858 97.038 C 217.103 101.428,210.422 111.566,205.720 115.458 C 204.884 116.150,203.711 117.171,203.113 117.727 C 202.515 118.283,201.660 118.854,201.213 118.996 C 200.766 119.138,200.400 119.391,200.400 119.559 C 200.400 119.726,199.455 120.292,198.300 120.817 C 197.145 121.341,195.885 122.085,195.499 122.469 C 195.114 122.854,194.034 123.366,193.099 123.608 C 192.165 123.849,190.590 124.327,189.600 124.669 C 182.547 127.105,173.816 127.163,164.000 124.839 C 162.209 124.415,158.380 122.877,157.600 122.268 C 157.270 122.011,156.190 121.392,155.200 120.894 C 150.589 118.574,140.800 109.567,140.800 107.644 C 140.800 107.400,140.612 107.200,140.383 107.200 C 140.154 107.200,139.448 106.105,138.816 104.768 C 138.183 103.430,137.426 102.035,137.133 101.668 C 136.146 100.431,135.600 99.217,135.600 98.259 C 135.600 97.735,135.258 96.428,134.841 95.353 C 131.259 86.141,132.831 70.189,138.186 61.400 C 138.723 60.520,139.391 59.350,139.673 58.800 C 139.954 58.250,140.283 57.710,140.405 57.600 C 140.527 57.490,141.682 56.140,142.973 54.600 C 144.264 53.060,146.312 50.928,147.525 49.863 C 148.739 48.798,149.985 47.673,150.294 47.363 C 150.604 47.053,151.010 46.800,151.198 46.800 C 151.385 46.800,152.047 46.375,152.669 45.855 C 153.291 45.335,154.246 44.770,154.791 44.599 C 155.336 44.428,156.661 43.684,157.736 42.944 C 158.810 42.205,160.125 41.600,160.658 41.600 C 161.190 41.600,162.295 41.318,163.113 40.974 C 167.273 39.221,182.000 38.164,184.107 39.466 M106.600 120.819 C 145.361 129.223,160.295 175.114,134.043 205.150 C 115.264 226.636,80.446 227.384,60.111 206.739 C 56.230 202.800,53.312 198.964,51.541 195.477 C 51.073 194.555,50.391 193.416,50.025 192.947 C 49.659 192.478,49.125 191.308,48.839 190.347 C 48.553 189.386,47.988 187.610,47.584 186.400 C 40.642 165.633,49.582 139.972,67.803 128.366 C 68.901 127.666,70.289 126.757,70.886 126.345 C 78.877 120.838,95.107 118.327,106.600 120.819 M284.400 214.189 C 326.434 220.647,343.249 271.643,313.229 301.624 C 292.811 322.015,259.619 321.512,239.551 300.507 C 235.668 296.442,231.238 289.776,230.206 286.442 L 229.909 285.483 230.939 286.442 C 231.505 286.969,232.244 288.181,232.579 289.136 C 232.915 290.092,233.597 291.383,234.095 292.006 C 234.593 292.629,235.530 293.873,236.177 294.769 C 236.824 295.666,237.499 296.400,237.677 296.400 C 237.855 296.400,238.000 296.618,238.000 296.885 C 238.000 297.439,245.603 304.800,246.174 304.800 C 246.380 304.800,246.920 305.143,247.374 305.562 C 248.239 306.359,250.299 307.657,252.000 308.474 C 252.550 308.738,253.270 309.173,253.600 309.440 C 255.147 310.692,263.536 313.562,268.800 314.641 C 273.735 315.653,286.248 314.836,290.662 313.214 C 291.796 312.798,292.827 312.560,292.953 312.686 C 293.260 312.993,299.188 310.445,300.200 309.571 C 300.640 309.191,301.657 308.547,302.460 308.140 C 306.433 306.127,317.200 296.672,317.200 295.196 C 317.200 294.931,317.695 294.059,318.300 293.256 C 319.753 291.329,320.298 290.456,320.998 288.937 C 321.318 288.242,321.720 287.612,321.890 287.537 C 322.258 287.374,324.466 281.763,325.170 279.200 C 326.303 275.076,327.280 266.184,326.950 263.000 C 326.859 262.120,326.707 260.500,326.613 259.400 C 326.519 258.300,326.347 256.950,326.232 256.400 C 326.116 255.850,325.901 254.590,325.754 253.600 C 325.606 252.610,324.914 250.540,324.216 249.000 C 323.519 247.460,322.436 244.983,321.812 243.495 C 321.187 242.008,320.608 240.859,320.525 240.942 C 320.442 241.025,321.382 243.412,322.614 246.246 C 323.846 249.081,324.924 251.940,325.011 252.600 C 325.097 253.260,325.348 254.644,325.567 255.676 C 327.115 262.945,326.783 270.016,324.425 280.000 C 323.637 283.334,322.095 286.488,318.192 292.746 C 315.901 296.419,312.333 300.416,309.039 303.000 C 308.197 303.660,307.008 304.605,306.397 305.100 C 305.785 305.595,305.113 306.000,304.904 306.000 C 304.695 306.000,304.213 306.344,303.833 306.763 C 303.453 307.183,302.570 307.752,301.871 308.028 C 301.172 308.304,300.238 308.852,299.795 309.246 C 299.352 309.640,298.272 310.258,297.395 310.619 C 296.518 310.980,295.209 311.553,294.486 311.890 C 293.763 312.228,293.072 312.405,292.950 312.283 C 292.828 312.161,291.979 312.332,291.064 312.663 C 290.149 312.994,289.040 313.329,288.600 313.407 C 282.391 314.511,280.397 314.710,276.400 314.627 C 264.104 314.369,250.588 309.088,243.162 301.642 C 242.372 300.849,240.977 299.493,240.062 298.630 C 239.148 297.766,238.400 296.914,238.400 296.737 C 238.400 296.560,237.770 295.766,237.000 294.973 C 236.230 294.180,235.600 293.381,235.600 293.196 C 235.600 293.012,235.187 292.353,234.682 291.731 C 234.177 291.109,233.424 289.790,233.009 288.800 C 232.594 287.810,231.837 286.540,231.327 285.978 C 230.760 285.353,230.400 284.454,230.400 283.665 C 230.400 282.955,229.951 281.488,229.403 280.406 C 228.855 279.324,228.410 278.024,228.416 277.519 C 228.427 276.458,228.043 274.076,227.719 273.200 C 227.157 271.679,226.945 259.936,227.465 259.095 C 227.633 258.823,227.920 257.521,228.102 256.200 C 228.631 252.381,228.675 252.198,229.559 250.199 C 230.022 249.154,230.400 248.001,230.400 247.638 C 230.400 247.275,230.660 246.608,230.977 246.155 C 231.294 245.702,231.891 244.442,232.304 243.356 C 232.959 241.633,233.966 239.978,237.845 234.248 C 239.299 232.100,246.838 224.800,247.602 224.800 C 247.753 224.800,248.202 224.440,248.600 224.000 C 248.998 223.560,249.552 223.200,249.831 223.200 C 250.110 223.200,250.853 222.767,251.483 222.237 C 252.896 221.048,262.710 216.791,263.415 217.061 C 263.697 217.169,264.447 216.989,265.082 216.661 C 266.188 216.089,268.708 215.682,273.000 215.382 C 280.805 214.838,288.247 216.027,295.482 218.977 C 297.401 219.760,299.115 220.400,299.290 220.400 C 299.465 220.400,300.461 220.998,301.504 221.728 C 302.547 222.459,304.294 223.579,305.386 224.217 C 307.380 225.381,316.000 233.549,316.000 234.274 C 316.000 234.486,316.450 235.083,317.000 235.600 C 317.550 236.117,318.000 236.753,318.000 237.015 C 318.000 237.276,318.540 238.169,319.200 239.000 C 319.860 239.831,320.400 240.319,320.400 240.086 C 320.400 239.852,319.950 239.127,319.400 238.473 C 318.850 237.819,318.400 237.095,318.400 236.863 C 318.400 236.631,317.950 235.956,317.400 235.362 C 316.850 234.769,316.400 234.173,316.400 234.037 C 316.400 233.722,310.239 227.377,308.400 225.798 C 306.715 224.352,304.002 222.517,302.400 221.740 C 302.070 221.580,301.620 221.244,301.400 220.992 C 299.911 219.289,288.555 215.756,282.200 215.018 C 278.014 214.533,277.003 214.558,267.600 215.380 C 267.050 215.428,266.060 215.702,265.400 215.989 C 264.740 216.276,263.820 216.490,263.356 216.464 C 262.892 216.439,261.632 216.841,260.556 217.357 C 259.480 217.873,257.028 218.904,255.107 219.648 C 253.107 220.422,251.519 221.282,251.393 221.660 C 251.271 222.023,250.693 222.440,250.109 222.587 C 249.525 222.734,248.201 223.562,247.168 224.427 C 246.135 225.292,245.160 226.000,245.003 226.000 C 244.515 226.000,238.508 232.249,237.441 233.866 C 236.884 234.710,235.882 236.171,235.215 237.114 C 234.547 238.057,234.000 239.008,234.000 239.227 C 234.000 239.446,233.746 239.722,233.436 239.841 C 233.126 239.961,232.752 240.540,232.606 241.129 C 232.459 241.718,231.848 243.280,231.247 244.600 C 229.905 247.548,228.728 250.759,227.655 254.400 C 227.177 256.022,226.374 266.062,226.589 267.724 C 226.669 268.342,226.850 270.316,226.990 272.111 C 227.131 273.905,227.420 275.583,227.633 275.839 C 227.846 276.096,227.989 276.822,227.952 277.453 C 227.915 278.084,228.366 279.537,228.954 280.682 C 229.954 282.628,230.152 286.087,229.163 284.319 C 228.491 283.119,226.950 277.954,226.583 275.675 C 226.487 275.084,226.214 273.700,225.975 272.600 C 223.369 260.599,228.432 242.861,237.554 232.040 C 240.274 228.812,244.820 224.606,247.800 222.558 C 250.383 220.783,259.222 216.430,260.773 216.169 C 261.558 216.037,262.920 215.684,263.800 215.385 C 264.680 215.086,266.750 214.636,268.400 214.385 C 270.050 214.134,271.670 213.875,272.000 213.810 C 273.793 213.459,281.103 213.682,284.400 214.189 M153.258 234.812 C 172.494 236.728,188.530 248.351,196.021 265.810 C 197.774 269.896,198.227 271.367,199.645 277.600 C 204.466 298.787,188.940 326.566,167.997 334.224 C 142.557 343.527,115.658 333.580,102.928 310.164 C 95.258 296.057,95.502 274.378,103.476 261.508 C 103.984 260.687,104.400 259.907,104.400 259.773 C 104.400 258.900,109.230 252.788,112.467 249.566 C 121.028 241.043,131.598 236.072,143.800 234.832 C 148.438 234.360,148.710 234.360,153.258 234.812 " stroke="none" fill="#efe3b2" fill-rule="evenodd"></path><path id="path1" d="M88.200 120.377 C 81.249 121.615,74.249 124.028,70.886 126.345 C 70.289 126.757,68.901 127.666,67.803 128.366 C 49.582 139.972,40.642 165.633,47.584 186.400 C 47.988 187.610,48.553 189.386,48.839 190.347 C 49.125 191.308,49.659 192.478,50.025 192.947 C 50.391 193.416,51.073 194.555,51.541 195.477 C 53.312 198.964,56.230 202.800,60.111 206.739 C 77.205 224.094,103.909 226.795,124.600 213.263 C 144.927 199.968,152.853 172.929,143.016 150.437 C 133.734 129.214,110.410 116.424,88.200 120.377 M342.800 163.555 C 341.980 163.702,341.591 163.928,341.860 164.102 C 342.484 164.504,346.800 164.380,346.800 163.960 C 346.800 163.776,347.052 163.722,347.360 163.840 C 347.667 163.958,348.038 163.862,348.183 163.627 C 348.472 163.160,345.256 163.117,342.800 163.555 M350.148 163.516 C 350.447 163.999,353.106 164.076,353.394 163.611 C 353.553 163.352,352.961 163.200,351.800 163.200 C 350.784 163.200,350.041 163.342,350.148 163.516 M357.101 163.433 C 356.572 163.962,357.251 164.400,358.600 164.400 C 359.344 164.400,360.064 164.220,360.200 164.000 C 360.336 163.780,360.122 163.598,359.724 163.595 C 359.326 163.592,358.635 163.491,358.190 163.371 C 357.744 163.252,357.254 163.279,357.101 163.433 M338.711 163.957 C 336.953 164.244,337.173 165.073,338.995 165.029 C 339.799 165.009,340.233 164.772,340.324 164.300 C 340.398 163.915,340.400 163.626,340.329 163.657 C 340.258 163.688,339.530 163.823,338.711 163.957 M361.500 163.865 C 361.775 163.976,362.000 164.358,362.000 164.713 C 362.000 165.228,362.101 165.259,362.497 164.863 C 363.011 164.349,362.322 163.579,361.400 163.638 C 361.180 163.652,361.225 163.754,361.500 163.865 M270.255 165.000 C 270.382 165.330,270.826 165.600,271.243 165.600 C 272.162 165.600,272.243 164.979,271.367 164.643 C 270.347 164.251,270.010 164.359,270.255 165.000 M273.569 165.657 C 274.103 166.154,274.613 166.347,274.828 166.132 C 275.043 165.917,274.679 165.579,273.930 165.296 L 272.672 164.821 273.569 165.657 M329.500 165.124 C 328.032 165.246,327.584 165.696,328.418 166.211 C 328.647 166.353,329.081 166.265,329.382 166.015 C 329.791 165.675,330.002 165.680,330.220 166.032 C 330.426 166.366,330.621 166.305,330.892 165.821 C 331.362 164.981,331.344 164.972,329.500 165.124 M366.902 165.615 C 367.172 166.047,367.634 166.400,367.930 166.400 C 368.736 166.400,368.283 165.522,367.285 165.153 C 366.494 164.861,366.458 164.904,366.902 165.615 M321.600 166.400 C 321.600 166.620,321.870 166.800,322.200 166.800 C 322.530 166.800,322.800 166.620,322.800 166.400 C 322.800 166.180,322.530 166.000,322.200 166.000 C 321.870 166.000,321.600 166.180,321.600 166.400 M280.161 167.010 C 281.395 167.654,283.402 167.427,282.353 166.762 C 282.049 166.570,281.170 166.411,280.400 166.409 L 279.000 166.405 280.161 167.010 M315.585 166.982 C 315.974 167.450,316.221 167.470,316.846 167.082 C 317.476 166.692,317.697 166.714,318.006 167.200 C 318.303 167.668,318.389 167.679,318.394 167.253 C 318.398 166.885,318.730 166.770,319.410 166.900 C 319.965 167.006,320.515 166.937,320.633 166.746 C 320.751 166.556,319.555 166.400,317.975 166.400 C 315.506 166.400,315.170 166.482,315.585 166.982 M372.224 166.987 C 372.651 167.310,373.180 167.575,373.400 167.575 C 373.620 167.575,373.451 167.310,373.024 166.987 C 372.596 166.664,372.067 166.400,371.847 166.400 C 371.627 166.400,371.796 166.664,372.224 166.987 M307.931 167.161 C 306.683 167.295,305.528 167.538,305.364 167.702 C 304.937 168.129,306.126 168.159,309.777 167.811 C 310.205 167.770,310.625 167.526,310.710 167.269 C 310.796 167.011,310.717 166.826,310.533 166.859 C 310.350 166.891,309.179 167.027,307.931 167.161 M311.318 167.052 C 311.750 167.484,314.856 167.615,314.594 167.190 C 314.461 166.976,313.613 166.800,312.710 166.800 C 311.806 166.800,311.180 166.913,311.318 167.052 M287.000 167.600 C 287.136 167.820,287.507 168.000,287.824 168.000 C 288.141 168.000,288.400 167.820,288.400 167.600 C 288.400 167.380,288.029 167.200,287.576 167.200 C 287.123 167.200,286.864 167.380,287.000 167.600 M293.600 168.027 C 294.370 168.217,295.213 168.299,295.474 168.209 C 295.735 168.119,296.012 168.235,296.089 168.466 C 296.170 168.709,296.456 168.614,296.764 168.244 C 297.246 167.663,297.049 167.604,294.749 167.641 C 292.463 167.678,292.345 167.718,293.600 168.027 M298.963 167.940 C 299.188 168.304,303.529 168.205,303.907 167.827 C 304.031 167.702,302.923 167.600,301.443 167.600 C 299.963 167.600,298.847 167.753,298.963 167.940 M376.161 169.046 C 376.475 169.725,376.932 169.995,377.767 169.997 C 378.408 169.999,378.858 169.943,378.767 169.872 C 378.675 169.802,377.952 169.374,377.161 168.922 L 375.722 168.099 376.161 169.046 M389.060 178.611 C 389.189 178.947,389.678 179.422,390.147 179.665 C 390.932 180.073,390.922 180.024,390.030 179.054 C 388.915 177.842,388.732 177.758,389.060 178.611 M393.763 184.298 C 393.992 184.635,393.954 185.006,393.663 185.297 C 392.927 186.033,393.120 186.398,394.200 186.308 C 395.424 186.207,395.433 186.069,394.298 184.781 C 393.804 184.221,393.563 184.003,393.763 184.298 M396.119 189.651 C 396.236 190.889,396.516 192.239,396.741 192.651 C 396.966 193.063,397.566 194.286,398.075 195.368 L 399.000 197.337 399.120 195.725 C 399.201 194.641,398.906 193.381,398.220 191.882 C 397.659 190.655,397.194 189.505,397.187 189.326 C 397.180 189.147,396.889 188.640,396.540 188.200 C 395.947 187.451,395.920 187.544,396.119 189.651 M276.700 215.033 C 276.593 215.140,275.267 215.298,273.753 215.384 C 268.918 215.658,266.267 216.048,265.082 216.661 C 264.447 216.989,263.697 217.169,263.415 217.061 C 262.710 216.791,252.896 221.048,251.483 222.237 C 250.853 222.767,250.110 223.200,249.831 223.200 C 249.552 223.200,248.998 223.560,248.600 224.000 C 248.202 224.440,247.753 224.800,247.602 224.800 C 246.838 224.800,239.299 232.100,237.845 234.248 C 233.966 239.978,232.959 241.633,232.304 243.356 C 231.891 244.442,231.294 245.702,230.977 246.155 C 230.660 246.608,230.400 247.275,230.400 247.638 C 230.400 248.001,230.022 249.154,229.559 250.199 C 228.675 252.198,228.631 252.381,228.102 256.200 C 227.920 257.521,227.633 258.823,227.465 259.095 C 226.945 259.936,227.157 271.679,227.719 273.200 C 228.043 274.076,228.427 276.458,228.416 277.519 C 228.410 278.024,228.855 279.324,229.403 280.406 C 229.951 281.488,230.400 282.955,230.400 283.665 C 230.400 284.454,230.760 285.353,231.327 285.978 C 231.837 286.540,232.594 287.810,233.009 288.800 C 233.424 289.790,234.177 291.109,234.682 291.731 C 235.187 292.353,235.600 293.012,235.600 293.196 C 235.600 293.381,236.230 294.180,237.000 294.973 C 237.770 295.766,238.400 296.560,238.400 296.737 C 238.400 296.914,239.148 297.766,240.062 298.630 C 240.977 299.493,242.372 300.849,243.162 301.642 C 250.588 309.088,264.104 314.369,276.400 314.627 C 280.397 314.710,282.391 314.511,288.600 313.407 C 289.040 313.329,290.149 312.994,291.064 312.663 C 291.979 312.332,292.828 312.161,292.950 312.283 C 293.072 312.405,293.763 312.228,294.486 311.890 C 295.209 311.553,296.518 310.980,297.395 310.619 C 298.272 310.258,299.352 309.640,299.795 309.246 C 300.238 308.852,301.172 308.304,301.871 308.028 C 302.570 307.752,303.453 307.183,303.833 306.763 C 304.213 306.344,304.695 306.000,304.904 306.000 C 305.113 306.000,305.785 305.595,306.397 305.100 C 307.008 304.605,308.197 303.660,309.039 303.000 C 312.333 300.416,315.901 296.419,318.192 292.746 C 322.095 286.488,323.637 283.334,324.425 280.000 C 326.784 270.012,327.117 262.906,325.564 255.676 C 325.342 254.644,325.111 253.337,325.049 252.772 C 324.878 251.198,320.005 239.949,318.941 238.669 C 318.423 238.047,318.000 237.314,318.000 237.039 C 318.000 236.764,317.550 236.117,317.000 235.600 C 316.450 235.083,316.000 234.486,316.000 234.274 C 316.000 233.549,307.380 225.381,305.386 224.217 C 304.294 223.579,302.547 222.459,301.504 221.728 C 300.461 220.998,299.465 220.400,299.290 220.400 C 299.115 220.400,297.401 219.760,295.482 218.977 C 291.095 217.189,288.746 216.577,283.319 215.809 C 280.944 215.473,278.526 215.117,277.947 215.019 C 277.368 214.920,276.807 214.926,276.700 215.033 M398.242 251.237 C 397.537 252.649,397.414 253.600,397.937 253.600 C 398.318 253.600,399.356 250.423,399.069 250.136 C 398.967 250.034,398.595 250.529,398.242 251.237 M395.507 259.683 C 394.741 261.287,393.519 264.220,392.792 266.200 C 392.065 268.180,391.319 269.971,391.135 270.180 C 390.951 270.389,390.805 271.019,390.812 271.580 C 390.823 272.469,390.877 272.510,391.234 271.897 C 391.459 271.510,391.533 271.015,391.398 270.797 C 391.263 270.579,391.301 270.400,391.482 270.400 C 391.855 270.400,392.371 269.244,394.786 263.000 C 395.722 260.580,396.660 258.267,396.871 257.861 C 397.083 257.455,397.175 257.042,397.077 256.944 C 396.979 256.846,396.272 258.078,395.507 259.683 M389.087 274.961 C 387.964 275.859,386.893 279.284,387.938 278.639 C 388.192 278.481,388.400 278.119,388.400 277.832 C 388.400 277.546,388.859 276.635,389.420 275.809 C 390.650 273.996,390.565 273.780,389.087 274.961 M385.906 281.229 C 385.500 281.465,385.245 282.039,385.293 282.610 C 385.337 283.147,385.480 283.455,385.611 283.293 C 385.887 282.952,386.827 280.794,386.691 280.812 C 386.641 280.819,386.288 281.006,385.906 281.229 M13.862 287.564 C 15.525 291.212,15.457 291.142,15.528 289.302 C 15.620 286.938,14.495 284.401,13.397 284.492 C 12.499 284.566,12.501 284.576,13.862 287.564 M383.673 285.687 C 383.413 285.947,383.207 286.529,383.216 286.980 C 383.230 287.677,383.324 287.630,383.847 286.665 C 384.516 285.430,384.428 284.932,383.673 285.687 M380.243 291.833 C 379.921 292.672,379.935 292.800,380.353 292.800 C 380.548 292.800,380.801 292.440,380.916 292.000 C 381.163 291.055,380.595 290.914,380.243 291.833 M17.520 293.072 C 16.810 293.259,17.860 296.019,18.881 296.650 C 19.100 296.786,19.063 296.492,18.799 295.997 C 18.494 295.429,18.461 295.007,18.708 294.849 C 19.042 294.636,18.660 292.704,18.313 292.846 C 18.251 292.872,17.894 292.973,17.520 293.072 M377.675 296.416 C 376.761 297.267,376.594 297.609,377.100 297.587 C 377.393 297.575,378.977 295.600,378.694 295.600 C 378.615 295.600,378.157 295.967,377.675 296.416 M19.832 298.704 C 20.608 300.061,21.307 300.211,21.529 299.067 C 21.613 298.636,21.394 298.400,20.909 298.400 C 20.497 298.400,19.918 298.175,19.623 297.900 C 19.328 297.625,19.422 297.987,19.832 298.704 M376.461 298.354 C 376.164 298.542,375.984 298.987,376.061 299.343 C 376.166 299.831,376.313 299.746,376.662 298.995 C 376.917 298.448,377.097 298.003,377.062 298.006 C 377.028 298.009,376.757 298.166,376.461 298.354 M22.840 302.376 C 22.435 302.625,22.420 302.891,22.773 303.549 C 23.356 304.638,23.465 304.619,23.700 303.390 C 23.917 302.255,23.614 301.897,22.840 302.376 M372.800 303.567 C 371.840 304.688,371.125 306.059,371.372 306.306 C 371.652 306.586,371.651 306.587,372.951 304.500 C 374.013 302.796,373.925 302.254,372.800 303.567 M24.405 306.101 C 25.543 308.052,25.800 308.174,25.800 306.762 C 25.800 305.979,25.598 305.600,25.180 305.600 C 24.839 305.600,24.328 305.375,24.045 305.100 C 23.761 304.825,23.923 305.276,24.405 306.101 M370.300 307.646 C 369.659 308.124,369.213 308.828,369.232 309.333 C 369.253 309.915,369.335 310.003,369.481 309.600 C 369.602 309.270,370.161 308.505,370.725 307.900 C 371.938 306.598,371.808 306.521,370.300 307.646 M26.520 309.244 C 27.075 310.132,27.600 310.231,27.600 309.447 C 27.600 309.142,27.251 308.802,26.824 308.690 C 26.150 308.514,26.110 308.587,26.520 309.244 M367.800 310.800 C 367.399 311.243,367.162 311.695,367.272 311.805 C 367.382 311.915,367.799 311.643,368.200 311.200 C 368.601 310.757,368.838 310.305,368.728 310.195 C 368.618 310.085,368.201 310.357,367.800 310.800 M28.000 311.518 C 28.000 311.729,28.291 312.143,28.646 312.438 C 29.205 312.902,29.273 312.873,29.146 312.220 C 28.995 311.443,28.000 310.833,28.000 311.518 M29.609 313.537 C 29.614 313.682,29.970 314.250,30.400 314.800 L 31.182 315.800 31.191 314.747 C 31.197 314.025,30.948 313.627,30.400 313.484 C 29.960 313.369,29.604 313.393,29.609 313.537 M365.599 313.900 C 365.598 314.065,365.059 314.560,364.400 315.000 C 363.740 315.441,363.202 316.158,363.201 316.596 C 363.200 317.326,363.274 317.309,364.100 316.380 C 366.227 313.990,366.502 313.600,366.062 313.600 C 365.808 313.600,365.599 313.735,365.599 313.900 M32.800 318.193 C 32.800 318.325,33.182 318.831,33.649 319.317 L 34.499 320.200 34.047 319.322 C 33.600 318.454,32.800 317.729,32.800 318.193 M35.192 321.300 C 35.424 321.575,35.971 322.233,36.407 322.761 C 37.060 323.553,37.200 323.599,37.200 323.025 C 37.200 322.642,36.795 321.990,36.300 321.577 C 35.280 320.726,34.552 320.544,35.192 321.300 M39.164 325.900 C 39.803 327.039,42.129 329.507,41.636 328.522 C 41.394 328.040,41.006 327.527,40.773 327.383 C 40.541 327.240,40.186 326.690,39.985 326.161 C 39.784 325.633,39.429 325.200,39.196 325.200 C 38.909 325.200,38.899 325.427,39.164 325.900 M355.314 325.900 C 355.170 326.285,354.725 326.836,354.324 327.124 C 353.923 327.413,353.306 328.223,352.952 328.924 L 352.308 330.200 353.217 329.200 C 353.718 328.650,354.765 327.525,355.545 326.700 C 356.627 325.555,356.798 325.200,356.269 325.200 C 355.887 325.200,355.457 325.515,355.314 325.900 M42.731 330.200 C 43.405 331.383,48.068 335.918,47.770 335.100 C 47.629 334.715,47.354 334.400,47.157 334.400 C 46.961 334.400,46.800 334.151,46.800 333.846 C 46.800 333.541,46.395 333.020,45.900 332.688 C 45.405 332.357,44.387 331.481,43.638 330.742 C 42.889 330.004,42.481 329.760,42.731 330.200 M350.000 331.167 C 350.000 331.369,349.879 331.849,349.732 332.233 C 349.376 333.162,350.247 332.633,350.812 331.578 C 351.140 330.964,351.098 330.800,350.614 330.800 C 350.276 330.800,350.000 330.965,350.000 331.167 M347.000 335.200 C 346.659 335.860,346.440 336.400,346.515 336.400 C 346.589 336.400,347.049 335.860,347.537 335.200 C 348.025 334.540,348.243 334.000,348.022 334.000 C 347.801 334.000,347.341 334.540,347.000 335.200 M49.224 337.025 C 50.326 338.199,50.380 338.212,50.126 337.237 C 50.016 336.817,49.562 336.379,49.117 336.262 C 48.354 336.063,48.360 336.106,49.224 337.025 M344.800 337.000 C 344.526 337.330,344.054 337.600,343.751 337.600 C 343.448 337.600,343.200 337.870,343.200 338.200 C 343.200 338.530,343.335 338.795,343.500 338.789 C 343.979 338.771,346.178 336.400,345.716 336.400 C 345.486 336.400,345.074 336.670,344.800 337.000 M51.680 339.631 C 55.000 342.979,56.000 343.738,56.000 342.907 C 56.000 342.377,55.477 341.886,54.391 341.396 C 53.373 340.937,52.697 340.328,52.548 339.735 C 52.419 339.221,52.168 338.800,51.989 338.800 C 51.811 338.800,51.372 338.687,51.013 338.550 C 50.654 338.412,50.955 338.898,51.680 339.631 M338.835 342.644 C 338.304 343.171,337.957 343.691,338.064 343.797 C 338.171 343.904,338.774 343.454,339.404 342.796 C 340.757 341.384,340.241 341.246,338.835 342.644 M56.400 344.104 C 56.400 344.198,57.885 345.506,59.700 347.011 C 61.515 348.516,63.180 349.939,63.400 350.174 C 64.112 350.933,66.800 352.848,66.800 352.597 C 66.800 352.463,65.961 351.599,64.935 350.677 C 63.910 349.754,62.425 348.416,61.635 347.702 C 60.846 346.988,60.046 346.403,59.858 346.402 C 59.669 346.401,58.814 345.845,57.958 345.166 C 57.101 344.488,56.400 344.010,56.400 344.104 M335.878 345.402 C 335.040 346.171,334.510 346.800,334.699 346.800 C 334.888 346.800,335.654 346.170,336.400 345.400 C 338.147 343.597,337.841 343.599,335.878 345.402 M326.500 352.812 C 326.005 353.011,325.600 353.364,325.600 353.596 C 325.600 353.830,326.046 353.726,326.600 353.363 C 327.150 353.003,327.600 352.639,327.600 352.554 C 327.600 352.367,327.617 352.363,326.500 352.812 M69.200 354.714 C 69.200 354.886,69.740 355.346,70.400 355.736 C 71.791 356.558,71.889 356.456,70.853 355.261 C 70.114 354.409,69.200 354.107,69.200 354.714 M73.200 357.598 C 73.200 357.804,73.556 358.162,73.991 358.395 C 74.626 358.735,74.738 358.704,74.560 358.240 C 74.302 357.567,73.200 357.047,73.200 357.598 M319.223 357.958 C 318.999 358.375,318.273 358.905,317.608 359.137 C 316.592 359.491,315.887 360.400,316.628 360.400 C 317.241 360.400,320.386 357.902,320.185 357.575 C 319.851 357.036,319.679 357.104,319.223 357.958 M76.199 359.998 C 76.766 360.916,78.093 361.321,77.616 360.430 C 77.372 359.974,76.898 359.600,76.562 359.600 C 76.227 359.600,76.063 359.779,76.199 359.998 M313.745 361.401 C 313.851 361.677,313.727 362.134,313.469 362.416 C 313.211 362.698,313.585 362.528,314.300 362.037 C 315.866 360.963,315.881 360.900,314.576 360.900 C 313.920 360.900,313.622 361.080,313.745 361.401 M310.655 363.400 C 310.782 363.730,311.136 364.000,311.443 364.000 C 312.201 364.000,312.149 363.343,311.367 363.043 C 310.464 362.696,310.398 362.729,310.655 363.400 M82.812 364.251 C 82.805 364.499,83.025 364.876,83.300 365.089 C 84.115 365.720,85.200 366.004,85.200 365.587 C 85.200 365.374,84.849 365.200,84.420 365.200 C 83.991 365.200,83.456 364.885,83.232 364.500 C 83.008 364.115,82.819 364.003,82.812 364.251 M306.752 365.926 C 306.327 367.045,306.303 367.565,306.706 366.956 C 306.868 366.712,307.585 366.212,308.300 365.846 C 309.898 365.027,309.899 365.000,308.352 365.000 C 307.416 365.000,307.016 365.231,306.752 365.926 M86.200 366.800 C 86.336 367.020,86.647 367.200,86.892 367.200 C 87.137 367.200,87.694 367.515,88.130 367.900 C 88.916 368.593,88.917 368.589,88.216 367.500 C 87.582 366.516,85.599 365.827,86.200 366.800 M302.679 367.454 C 301.812 368.321,302.416 369.124,303.600 368.678 C 304.733 368.250,305.235 367.600,304.433 367.600 C 304.231 367.600,303.816 367.504,303.512 367.388 C 303.207 367.271,302.833 367.301,302.679 367.454 M89.603 368.297 C 89.606 368.643,91.849 370.223,92.905 370.623 C 93.440 370.825,93.550 370.734,93.362 370.245 C 93.226 369.890,92.684 369.600,92.157 369.600 C 91.631 369.600,91.200 369.463,91.200 369.296 C 91.200 369.129,90.840 368.768,90.400 368.493 C 89.960 368.218,89.601 368.130,89.603 368.297 M300.675 369.859 C 300.532 370.001,299.737 370.136,298.908 370.159 C 297.638 370.193,296.120 372.000,297.360 372.000 C 297.777 372.000,300.807 370.313,301.026 369.959 C 301.282 369.544,301.055 369.479,300.675 369.859 M94.800 371.600 C 94.800 371.820,95.070 372.000,95.400 372.000 C 95.730 372.000,96.000 372.210,96.000 372.467 C 96.000 372.723,96.116 372.818,96.257 372.676 C 96.555 372.379,95.672 371.200,95.151 371.200 C 94.958 371.200,94.800 371.380,94.800 371.600 M98.199 373.198 C 98.475 373.646,100.000 374.530,100.000 374.243 C 100.000 374.141,99.717 373.774,99.371 373.429 C 98.680 372.737,97.808 372.565,98.199 373.198 M291.419 373.569 C 291.294 373.772,290.665 374.054,290.023 374.195 C 288.795 374.465,287.706 375.439,288.144 375.877 C 288.285 376.019,288.806 375.947,289.301 375.718 C 289.795 375.489,290.950 374.965,291.866 374.553 C 292.904 374.087,293.356 373.693,293.066 373.509 C 292.424 373.100,291.692 373.127,291.419 373.569 M102.000 375.391 C 102.000 375.496,102.717 375.928,103.593 376.351 C 105.077 377.068,105.160 377.072,104.804 376.407 C 104.315 375.493,102.000 374.654,102.000 375.391 M107.017 378.027 C 107.162 378.262,107.521 378.362,107.815 378.250 C 108.108 378.137,108.405 378.201,108.474 378.391 C 108.543 378.582,110.283 379.466,112.341 380.357 C 115.698 381.809,116.022 381.884,115.500 381.088 C 114.771 379.973,112.707 378.950,110.509 378.613 C 109.579 378.470,108.714 378.184,108.586 377.977 C 108.458 377.770,107.993 377.600,107.553 377.600 C 107.087 377.600,106.863 377.779,107.017 378.027 M119.274 382.755 C 119.040 382.899,120.952 383.808,123.524 384.774 C 126.096 385.740,128.429 386.707,128.710 386.922 C 128.990 387.138,129.314 387.220,129.429 387.104 C 129.615 386.918,126.305 384.991,123.600 383.711 C 122.040 382.973,119.742 382.465,119.274 382.755 M269.100 382.920 C 268.495 383.159,268.000 383.500,268.000 383.677 C 268.000 383.855,267.770 384.000,267.489 384.000 C 267.016 384.000,265.600 385.355,265.600 385.808 C 265.600 385.917,265.915 385.832,266.300 385.618 C 266.685 385.405,268.044 384.771,269.321 384.211 C 272.249 382.925,272.049 381.755,269.100 382.920 M260.588 386.111 C 259.711 386.601,258.387 388.117,258.625 388.357 C 258.711 388.443,259.010 388.332,259.290 388.109 C 259.571 387.886,260.469 387.584,261.286 387.437 C 262.103 387.289,262.896 386.968,263.048 386.723 C 263.227 386.433,263.140 386.390,262.801 386.599 C 262.481 386.797,262.102 386.680,261.823 386.299 C 261.467 385.813,261.194 385.771,260.588 386.111 M131.200 387.198 C 130.730 387.503,130.833 387.589,131.676 387.594 C 132.268 387.597,132.851 387.758,132.970 387.952 C 133.090 388.145,133.537 388.395,133.964 388.506 C 134.940 388.762,134.656 387.769,133.672 387.485 C 133.303 387.378,132.730 387.182,132.400 387.050 C 132.070 386.917,131.530 386.984,131.200 387.198 M254.382 388.434 C 253.788 389.543,254.165 389.835,255.439 389.255 C 256.298 388.863,256.395 388.676,255.992 388.190 C 255.324 387.386,254.909 387.449,254.382 388.434 M136.825 388.784 C 136.453 389.015,136.667 389.195,137.542 389.387 C 138.229 389.538,138.894 389.828,139.019 390.031 C 139.145 390.234,139.552 390.397,139.924 390.394 C 140.467 390.389,140.432 390.291,139.749 389.894 C 139.281 389.622,138.551 389.188,138.127 388.928 C 137.689 388.659,137.128 388.598,136.825 388.784 M250.156 389.400 C 249.992 389.840,249.665 390.332,249.429 390.494 C 249.186 390.661,249.379 390.790,249.876 390.794 C 250.977 390.802,251.360 390.214,250.849 389.303 C 250.480 388.647,250.434 388.654,250.156 389.400 M140.800 389.957 C 140.800 390.154,141.085 390.424,141.433 390.557 C 142.336 390.904,142.402 390.871,142.145 390.200 C 141.899 389.559,140.800 389.360,140.800 389.957 M245.466 391.232 C 244.747 392.071,244.750 392.075,246.071 391.796 C 247.404 391.515,248.582 390.800,247.713 390.800 C 247.467 390.800,247.023 390.707,246.727 390.593 C 246.431 390.480,245.864 390.767,245.466 391.232 M143.200 391.158 C 143.200 391.355,143.908 391.583,144.773 391.666 C 146.009 391.784,146.255 391.707,145.924 391.308 C 145.446 390.733,143.200 390.609,143.200 391.158 M242.060 391.866 C 241.345 392.642,241.778 393.021,242.839 392.548 C 243.532 392.239,243.587 392.088,243.143 391.725 C 242.737 391.392,242.464 391.428,242.060 391.866 M239.055 392.600 C 238.896 393.015,239.082 393.200,239.662 393.200 C 240.360 393.200,240.416 393.101,240.000 392.600 C 239.726 392.270,239.453 392.000,239.394 392.000 C 239.334 392.000,239.182 392.270,239.055 392.600 M153.125 393.233 C 153.633 393.431,155.163 393.780,156.525 394.010 C 157.886 394.239,159.765 394.577,160.700 394.760 C 161.635 394.943,162.400 394.965,162.400 394.809 C 162.400 394.478,156.610 393.249,154.000 393.026 C 152.626 392.909,152.419 392.958,153.125 393.233 M235.980 393.424 C 235.427 394.090,236.200 394.241,237.134 393.650 C 237.567 393.375,237.554 393.268,237.063 393.079 C 236.730 392.952,236.243 393.107,235.980 393.424 M232.900 394.012 C 231.706 394.492,231.756 394.736,233.000 394.498 C 233.550 394.393,234.000 394.148,234.000 393.953 C 234.000 393.759,233.955 393.611,233.900 393.625 C 233.845 393.639,233.395 393.813,232.900 394.012 M228.000 394.551 C 228.000 395.000,228.339 395.190,229.100 395.168 C 229.727 395.150,229.942 395.041,229.600 394.915 C 229.270 394.793,228.775 394.515,228.500 394.297 C 228.143 394.015,228.000 394.088,228.000 394.551 M164.492 395.363 C 165.382 396.024,169.600 396.192,169.600 395.566 C 169.600 395.277,169.056 395.177,168.100 395.290 C 167.275 395.387,165.970 395.328,165.200 395.158 C 164.008 394.895,163.903 394.926,164.492 395.363 M170.800 396.022 C 170.076 396.238,170.452 396.331,172.167 396.360 C 173.468 396.382,174.438 396.305,174.321 396.188 C 173.947 395.813,171.832 395.714,170.800 396.022 M219.100 396.282 C 219.595 396.378,220.405 396.378,220.900 396.282 C 221.395 396.187,220.990 396.109,220.000 396.109 C 219.010 396.109,218.605 396.187,219.100 396.282 M174.871 396.604 C 175.154 396.886,178.482 397.167,183.800 397.359 C 188.320 397.522,189.130 397.474,188.000 397.108 C 186.799 396.719,174.513 396.248,174.871 396.604 M192.224 397.013 C 191.517 397.547,191.679 397.595,194.024 397.540 C 195.441 397.507,196.060 397.403,195.400 397.309 C 194.740 397.215,194.029 396.972,193.820 396.769 C 193.323 396.286,193.149 396.313,192.224 397.013 M207.031 396.750 C 206.908 396.949,205.607 397.130,204.141 397.152 C 202.674 397.174,201.383 397.284,201.270 397.396 C 201.158 397.508,202.526 397.600,204.310 397.600 C 207.279 397.600,208.592 397.213,207.634 396.621 C 207.426 396.492,207.154 396.550,207.031 396.750 M208.600 396.800 C 208.455 397.034,208.870 397.200,209.600 397.200 C 210.330 397.200,210.745 397.034,210.600 396.800 C 210.464 396.580,210.014 396.400,209.600 396.400 C 209.186 396.400,208.736 396.580,208.600 396.800 M212.200 396.800 C 211.916 397.259,213.595 397.259,215.400 396.800 C 216.431 396.538,216.307 396.488,214.524 396.447 C 213.382 396.421,212.336 396.580,212.200 396.800 " stroke="none" fill="#ef8318" fill-rule="evenodd"></path><path id="path2" d="M0.000 200.000 L 0.000 400.000 200.000 400.000 L 400.000 400.000 400.000 200.000 L 400.000 0.000 200.000 0.000 L 0.000 0.000 0.000 200.000 M399.200 200.000 L 399.200 399.200 200.000 399.200 L 0.800 399.200 0.800 200.000 L 0.800 0.800 200.000 0.800 L 399.200 0.800 399.200 200.000 M142.600 235.601 C 119.727 238.477,101.666 256.250,98.389 279.109 C 92.179 322.420,140.412 352.671,177.050 328.444 C 182.875 324.592,189.779 317.201,192.441 311.969 C 192.936 310.996,193.643 309.750,194.012 309.200 C 198.772 302.107,200.875 285.221,198.298 274.800 C 191.979 249.256,168.033 232.403,142.600 235.601 " stroke="none" fill="#3da027" fill-rule="evenodd"></path><path id="path3" d="M174.327 39.403 C 174.257 39.471,172.940 39.624,171.400 39.742 C 168.305 39.979,166.399 40.354,163.400 41.318 C 162.300 41.671,160.635 42.178,159.700 42.444 C 158.765 42.710,158.000 43.091,158.000 43.289 C 158.000 43.488,156.830 44.181,155.400 44.829 C 153.970 45.477,152.800 46.164,152.800 46.355 C 152.800 46.547,152.305 46.912,151.700 47.167 C 149.070 48.275,141.369 56.559,139.246 60.564 C 138.556 61.864,137.829 63.124,137.629 63.365 C 137.126 63.971,135.558 67.986,135.350 69.200 C 135.256 69.750,135.011 70.650,134.805 71.200 C 132.814 76.527,133.146 91.242,135.355 95.512 C 135.710 96.199,136.000 97.228,136.000 97.800 C 136.000 98.915,137.010 101.145,137.813 101.800 C 138.082 102.020,138.625 103.073,139.020 104.139 C 139.415 105.206,139.961 106.164,140.233 106.268 C 140.504 106.372,140.945 106.985,141.212 107.629 C 141.479 108.273,141.861 108.800,142.061 108.800 C 142.261 108.800,142.540 109.115,142.680 109.500 C 143.610 112.050,152.712 119.272,158.800 122.291 C 165.681 125.703,179.960 127.268,185.385 125.206 C 185.898 125.011,186.407 124.940,186.516 125.049 C 186.624 125.158,187.821 124.780,189.174 124.211 C 190.528 123.641,191.789 123.269,191.975 123.385 C 192.411 123.654,195.200 122.499,195.200 122.049 C 195.200 121.862,196.235 121.223,197.500 120.629 C 203.004 118.042,210.305 110.954,213.597 105.000 C 214.327 103.680,215.137 102.330,215.398 102.000 C 216.217 100.963,217.652 96.434,218.946 90.800 C 219.645 87.758,219.629 76.657,218.923 74.400 C 218.683 73.630,218.170 72.010,217.784 70.800 C 217.399 69.590,217.022 68.098,216.948 67.485 C 216.792 66.208,216.202 64.953,215.215 63.800 C 214.838 63.360,214.291 62.370,214.000 61.600 C 213.709 60.830,213.173 59.840,212.809 59.400 C 212.445 58.960,211.858 58.132,211.504 57.560 C 207.115 50.469,195.995 42.864,186.800 40.665 C 183.281 39.823,174.779 38.963,174.327 39.403 " stroke="none" fill="#241cfb" fill-rule="evenodd"></path><path id="path4" d="M170.600 39.226 C 167.457 39.615,164.949 40.200,163.113 40.974 C 162.295 41.318,161.190 41.600,160.658 41.600 C 160.125 41.600,158.810 42.205,157.736 42.944 C 156.661 43.684,155.336 44.428,154.791 44.599 C 154.246 44.770,153.291 45.335,152.669 45.855 C 152.047 46.375,151.385 46.800,151.198 46.800 C 151.010 46.800,150.604 47.053,150.294 47.363 C 149.985 47.673,148.739 48.798,147.525 49.863 C 146.312 50.928,144.264 53.060,142.973 54.600 C 141.682 56.140,140.527 57.490,140.405 57.600 C 140.283 57.710,139.954 58.250,139.673 58.800 C 139.391 59.350,138.723 60.520,138.186 61.400 C 132.831 70.189,131.259 86.141,134.841 95.353 C 135.258 96.428,135.600 97.735,135.600 98.259 C 135.600 99.217,136.146 100.431,137.133 101.668 C 137.426 102.035,138.183 103.430,138.816 104.768 C 139.448 106.105,140.154 107.200,140.383 107.200 C 140.612 107.200,140.800 107.400,140.800 107.644 C 140.800 109.567,150.589 118.574,155.200 120.894 C 156.190 121.392,157.270 122.011,157.600 122.268 C 158.380 122.877,162.209 124.415,164.000 124.839 C 173.816 127.163,182.547 127.105,189.600 124.669 C 190.590 124.327,192.165 123.849,193.099 123.608 C 194.034 123.366,195.114 122.854,195.499 122.469 C 195.885 122.085,197.145 121.341,198.300 120.817 C 199.455 120.292,200.400 119.726,200.400 119.559 C 200.400 119.391,200.766 119.138,201.213 118.996 C 201.660 118.854,202.515 118.283,203.113 117.727 C 203.711 117.171,204.884 116.150,205.720 115.458 C 210.422 111.566,217.103 101.428,217.858 97.038 C 217.975 96.357,218.304 95.170,218.590 94.400 C 218.876 93.630,219.230 92.113,219.376 91.028 C 219.522 89.943,219.724 88.923,219.824 88.762 C 220.751 87.261,219.648 74.111,218.250 70.000 C 217.913 69.010,217.414 67.415,217.140 66.456 C 216.867 65.497,216.138 64.077,215.522 63.301 C 214.905 62.525,214.400 61.684,214.400 61.432 C 214.400 60.720,211.845 56.925,209.720 54.480 C 207.291 51.685,207.317 51.711,205.012 49.800 C 203.950 48.920,202.883 48.018,202.641 47.795 C 200.392 45.727,192.126 41.375,189.297 40.768 C 185.104 39.868,184.521 39.722,184.107 39.466 C 183.459 39.066,173.349 38.886,170.600 39.226 M186.800 40.665 C 195.995 42.864,207.115 50.469,211.504 57.560 C 211.858 58.132,212.445 58.960,212.809 59.400 C 213.173 59.840,213.709 60.830,214.000 61.600 C 214.291 62.370,214.838 63.360,215.215 63.800 C 216.202 64.953,216.792 66.208,216.948 67.485 C 217.022 68.098,217.399 69.590,217.784 70.800 C 218.170 72.010,218.683 73.630,218.923 74.400 C 219.629 76.657,219.645 87.758,218.946 90.800 C 217.652 96.434,216.217 100.963,215.398 102.000 C 215.137 102.330,214.327 103.680,213.597 105.000 C 210.305 110.954,203.004 118.042,197.500 120.629 C 196.235 121.223,195.200 121.862,195.200 122.049 C 195.200 122.499,192.411 123.654,191.975 123.385 C 191.789 123.269,190.528 123.641,189.174 124.211 C 187.821 124.780,186.624 125.158,186.516 125.049 C 186.407 124.940,185.898 125.011,185.385 125.206 C 179.960 127.268,165.681 125.703,158.800 122.291 C 152.712 119.272,143.610 112.050,142.680 109.500 C 142.540 109.115,142.261 108.800,142.061 108.800 C 141.861 108.800,141.479 108.273,141.212 107.629 C 140.945 106.985,140.504 106.372,140.233 106.268 C 139.961 106.164,139.415 105.206,139.020 104.139 C 138.625 103.073,138.082 102.020,137.813 101.800 C 137.010 101.145,136.000 98.915,136.000 97.800 C 136.000 97.228,135.710 96.199,135.355 95.512 C 133.146 91.242,132.814 76.527,134.805 71.200 C 135.011 70.650,135.256 69.750,135.350 69.200 C 135.558 67.986,137.126 63.971,137.629 63.365 C 137.829 63.124,138.556 61.864,139.246 60.564 C 141.369 56.559,149.070 48.275,151.700 47.167 C 152.305 46.912,152.800 46.547,152.800 46.355 C 152.800 46.164,153.970 45.477,155.400 44.829 C 156.830 44.181,158.000 43.488,158.000 43.289 C 158.000 43.091,158.765 42.710,159.700 42.444 C 160.635 42.178,162.300 41.671,163.400 41.318 C 166.399 40.354,168.305 39.979,171.400 39.742 C 172.940 39.624,174.257 39.471,174.327 39.403 C 174.779 38.963,183.281 39.823,186.800 40.665 M272.000 213.810 C 271.670 213.875,270.050 214.134,268.400 214.385 C 266.750 214.636,264.680 215.086,263.800 215.385 C 262.920 215.684,261.558 216.037,260.773 216.169 C 259.222 216.430,250.383 220.783,247.800 222.558 C 244.820 224.606,240.274 228.812,237.554 232.040 C 228.432 242.861,223.369 260.599,225.975 272.600 C 226.214 273.700,226.487 275.084,226.583 275.675 C 226.950 277.954,228.491 283.119,229.163 284.319 C 230.152 286.087,229.954 282.628,228.954 280.682 C 228.366 279.537,227.915 278.084,227.952 277.453 C 227.989 276.822,227.846 276.096,227.633 275.839 C 227.420 275.583,227.131 273.905,226.990 272.111 C 226.850 270.316,226.669 268.342,226.589 267.724 C 226.374 266.062,227.177 256.022,227.655 254.400 C 228.728 250.759,229.905 247.548,231.247 244.600 C 231.848 243.280,232.459 241.718,232.606 241.129 C 232.752 240.540,233.126 239.961,233.436 239.841 C 233.746 239.722,234.000 239.446,234.000 239.227 C 234.000 239.008,234.547 238.057,235.215 237.114 C 235.882 236.171,236.884 234.710,237.441 233.866 C 238.508 232.249,244.515 226.000,245.003 226.000 C 245.160 226.000,246.135 225.292,247.168 224.427 C 248.201 223.562,249.525 222.734,250.109 222.587 C 250.693 222.440,251.271 222.023,251.393 221.660 C 251.519 221.282,253.107 220.422,255.107 219.648 C 257.028 218.904,259.480 217.873,260.556 217.357 C 261.632 216.841,262.892 216.439,263.356 216.464 C 263.820 216.490,264.740 216.276,265.400 215.989 C 266.060 215.702,267.050 215.428,267.600 215.380 C 277.003 214.558,278.014 214.533,282.200 215.018 C 288.555 215.756,299.911 219.289,301.400 220.992 C 301.620 221.244,302.070 221.580,302.400 221.740 C 304.002 222.517,306.715 224.352,308.400 225.798 C 310.239 227.377,316.400 233.722,316.400 234.037 C 316.400 234.173,316.850 234.769,317.400 235.362 C 317.950 235.956,318.400 236.645,318.400 236.895 C 318.400 237.144,318.742 237.720,319.159 238.174 C 319.577 238.628,320.680 240.800,321.610 243.000 C 322.540 245.200,323.792 248.080,324.392 249.400 C 324.992 250.720,325.604 252.610,325.752 253.600 C 325.900 254.590,326.116 255.850,326.232 256.400 C 326.347 256.950,326.519 258.300,326.613 259.400 C 326.707 260.500,326.859 262.120,326.950 263.000 C 327.280 266.184,326.303 275.076,325.170 279.200 C 324.466 281.763,322.258 287.374,321.890 287.537 C 321.720 287.612,321.318 288.242,320.998 288.937 C 320.298 290.456,319.753 291.329,318.300 293.256 C 317.695 294.059,317.200 294.931,317.200 295.196 C 317.200 296.672,306.433 306.127,302.460 308.140 C 301.657 308.547,300.640 309.191,300.200 309.571 C 299.188 310.445,293.260 312.993,292.953 312.686 C 292.827 312.560,291.796 312.798,290.662 313.214 C 286.248 314.836,273.735 315.653,268.800 314.641 C 263.536 313.562,255.147 310.692,253.600 309.440 C 253.270 309.173,252.550 308.738,252.000 308.474 C 250.299 307.657,248.239 306.359,247.374 305.562 C 246.920 305.143,246.380 304.800,246.174 304.800 C 245.603 304.800,238.000 297.439,238.000 296.885 C 238.000 296.618,237.855 296.400,237.677 296.400 C 237.499 296.400,236.824 295.666,236.177 294.769 C 235.530 293.873,234.593 292.629,234.095 292.006 C 233.597 291.383,232.915 290.092,232.579 289.136 C 232.244 288.181,231.505 286.969,230.939 286.442 L 229.909 285.483 230.206 286.442 C 233.625 297.481,248.888 310.729,262.600 314.558 C 308.383 327.343,345.389 278.055,320.501 237.441 C 311.110 222.117,287.735 210.728,272.000 213.810 M143.600 234.859 C 139.524 235.283,135.375 236.138,132.460 237.156 C 129.519 238.184,130.546 238.595,133.672 237.642 C 138.071 236.300,139.314 236.036,143.405 235.571 C 168.585 232.709,192.030 249.464,198.298 274.800 C 200.875 285.221,198.772 302.107,194.012 309.200 C 193.643 309.750,192.936 310.996,192.441 311.969 C 181.798 332.892,152.895 342.690,129.653 333.254 C 88.985 316.743,86.957 260.316,126.319 240.476 C 129.032 239.109,130.100 238.400,129.448 238.400 C 128.903 238.400,128.187 238.670,127.857 239.000 C 127.527 239.330,127.083 239.600,126.869 239.600 C 124.952 239.600,116.836 245.216,112.467 249.566 C 109.230 252.788,104.400 258.900,104.400 259.773 C 104.400 259.907,103.984 260.687,103.476 261.508 C 95.502 274.378,95.258 296.057,102.928 310.164 C 115.658 333.580,142.557 343.527,167.997 334.224 C 180.181 329.769,192.496 316.790,197.344 303.293 C 199.965 295.995,201.057 283.806,199.645 277.600 C 198.227 271.367,197.774 269.896,196.021 265.810 C 188.530 248.351,172.494 236.728,153.258 234.812 C 148.670 234.356,148.440 234.357,143.600 234.859 " stroke="none" fill="#98a297" fill-rule="evenodd"></path></g></svg>