<svg id="svg" version="1.1" xmlns="http://www.w3.org/2000/svg" xmlns:xlink="http://www.w3.org/1999/xlink" width="400" height="400" viewBox="0, 0, 400,400"><g id="svgg"><path id="path0" d="M0.000 200.400 L 0.000 253.200 200.000 253.200 L 400.000 253.200 400.000 200.400 L 400.000 147.600 200.000 147.600 L 0.000 147.600 0.000 200.400 " stroke="none" fill="#fbdb43" fill-rule="evenodd"></path><path id="path1" d="M99.900 146.300 C 154.955 146.356,245.045 146.356,300.100 146.300 C 355.155 146.244,310.110 146.198,200.000 146.198 C 89.890 146.198,44.845 146.244,99.900 146.300 M0.000 254.400 C 0.000 254.666,66.933 254.800,200.000 254.800 C 333.067 254.800,400.000 254.666,400.000 254.400 C 400.000 254.134,333.067 254.000,200.000 254.000 C 66.933 254.000,0.000 254.134,0.000 254.400 M99.900 361.100 C 154.955 361.156,245.045 361.156,300.100 361.100 C 355.155 361.044,310.110 360.998,200.000 360.998 C 89.890 360.998,44.845 361.044,99.900 361.100 " stroke="none" fill="#dc402c" fill-rule="evenodd"></path><path id="path2" d="M99.900 39.100 C 154.955 39.156,245.045 39.156,300.100 39.100 C 355.155 39.044,310.110 38.998,200.000 38.998 C 89.890 38.998,44.845 39.044,99.900 39.100 M0.000 93.800 L 0.000 145.600 200.000 145.600 L 400.000 145.600 400.000 93.800 L 400.000 42.000 200.000 42.000 L 0.000 42.000 0.000 93.800 M0.000 307.000 L 0.000 358.800 200.000 358.800 L 400.000 358.800 400.000 307.000 L 400.000 255.200 200.000 255.200 L 0.000 255.200 0.000 307.000 M99.900 361.900 C 154.955 361.956,245.045 361.956,300.100 361.900 C 355.155 361.844,310.110 361.798,200.000 361.798 C 89.890 361.798,44.845 361.844,99.900 361.900 " stroke="none" fill="#dc0424" fill-rule="evenodd"></path><path id="path3" d="M0.000 147.000 C 0.000 147.533,22.489 147.600,200.000 147.600 C 377.511 147.600,400.000 147.533,400.000 147.000 C 400.000 146.467,377.511 146.400,200.000 146.400 C 22.489 146.400,0.000 146.467,0.000 147.000 M0.000 253.600 C 0.000 253.866,66.933 254.000,200.000 254.000 C 333.067 254.000,400.000 253.866,400.000 253.600 C 400.000 253.334,333.067 253.200,200.000 253.200 C 66.933 253.200,0.000 253.334,0.000 253.600 " stroke="none" fill="#e48034" fill-rule="evenodd"></path><path id="path4" d="M0.000 40.600 L 0.000 42.000 200.000 42.000 L 400.000 42.000 400.000 40.600 L 400.000 39.200 200.000 39.200 L 0.000 39.200 0.000 40.600 M99.900 145.900 C 154.955 145.956,245.045 145.956,300.100 145.900 C 355.155 145.844,310.110 145.798,200.000 145.798 C 89.890 145.798,44.845 145.844,99.900 145.900 M99.900 255.100 C 154.955 255.156,245.045 255.156,300.100 255.100 C 355.155 255.044,310.110 254.998,200.000 254.998 C 89.890 254.998,44.845 255.044,99.900 255.100 M0.000 359.800 L 0.000 360.800 200.000 360.800 L 400.000 360.800 400.000 359.800 L 400.000 358.800 200.000 358.800 L 0.000 358.800 0.000 359.800 M99.900 361.500 C 154.955 361.556,245.045 361.556,300.100 361.500 C 355.155 361.444,310.110 361.398,200.000 361.398 C 89.890 361.398,44.845 361.444,99.900 361.500 " stroke="none" fill="#dc2c2c" fill-rule="evenodd"></path></g></svg>